<?xml version="1.0" encoding="UTF-8" standalone="no"?><svg xmlns="http://www.w3.org/2000/svg" xmlns:xlink="http://www.w3.org/1999/xlink" contentScriptType="application/ecmascript" contentStyleType="text/css" height="321px" preserveAspectRatio="none" style="width:1209px;height:321px;background:#FFFFFF;" version="1.1" viewBox="0 0 1209 321" width="1209px" zoomAndPan="magnify"><defs><filter height="300%" id="frdy6xrb8tf7e" width="300%" x="-1" y="-1"><feGaussianBlur result="blurOut" stdDeviation="2.0"/><feColorMatrix in="blurOut" result="blurOut2" type="matrix" values="0 0 0 0 0 0 0 0 0 0 0 0 0 0 0 0 0 0 .4 0"/><feOffset dx="4.0" dy="4.0" in="blurOut2" result="blurOut3"/><feBlend in="SourceGraphic" in2="blurOut3" mode="normal"/></filter></defs><g><ellipse cx="608.4911" cy="163.3982" fill="#FEFECE" filter="url(#frdy6xrb8tf7e)" rx="104.9911" ry="23.3982" style="stroke:#A80036;stroke-width:1.5;"/><text fill="#000000" font-family="sans-serif" font-size="14" lengthAdjust="spacing" textLength="175" x="520.9911" y="166.2449">Functional Programming</text><ellipse cx="163.5638" cy="286.8128" fill="#FEFECE" filter="url(#frdy6xrb8tf7e)" rx="94.5638" ry="21.3128" style="stroke:#A80036;stroke-width:1.5;"/><text fill="#000000" font-family="sans-serif" font-size="14" lengthAdjust="spacing" textLength="152" x="87.5638" y="289.6594">Tail call Optimization</text><ellipse cx="369.5612" cy="287.2122" fill="#FEFECE" filter="url(#frdy6xrb8tf7e)" rx="76.5612" ry="17.7122" style="stroke:#A80036;stroke-width:1.5;"/><text fill="#000000" font-family="sans-serif" font-size="14" lengthAdjust="spacing" textLength="110" x="311.5612" y="290.9598">Lazy Evaluation</text><ellipse cx="536.3402" cy="287.2338" fill="#FEFECE" filter="url(#frdy6xrb8tf7e)" rx="54.8402" ry="14.7338" style="stroke:#A80036;stroke-width:1.5;"/><text fill="#000000" font-family="sans-serif" font-size="14" lengthAdjust="spacing" textLength="60" x="503.3402" y="290.9814">Currying</text><ellipse cx="681.3402" cy="287.2338" fill="#FEFECE" filter="url(#frdy6xrb8tf7e)" rx="54.8402" ry="14.7338" style="stroke:#A80036;stroke-width:1.5;"/><text fill="#000000" font-family="sans-serif" font-size="14" lengthAdjust="spacing" textLength="60" x="648.3402" y="290.9814">Closures</text><ellipse cx="874.7042" cy="286.9408" fill="#FEFECE" filter="url(#frdy6xrb8tf7e)" rx="102.7042" ry="22.9408" style="stroke:#A80036;stroke-width:1.5;"/><text fill="#000000" font-family="sans-serif" font-size="14" lengthAdjust="spacing" textLength="170" x="789.7042" y="289.7875">Functional Composition</text><ellipse cx="1096.495" cy="287.199" fill="#FEFECE" filter="url(#frdy6xrb8tf7e)" rx="83.995" ry="19.199" style="stroke:#A80036;stroke-width:1.5;"/><text fill="#000000" font-family="sans-serif" font-size="14" lengthAdjust="spacing" textLength="128" x="1032.2335" y="290.1356">Function Chaining</text><ellipse cx="1088.6701" cy="34.634" fill="#FEFECE" filter="url(#frdy6xrb8tf7e)" rx="108.6701" ry="24.134" style="stroke:#A80036;stroke-width:1.5;"/><text fill="#000000" font-family="sans-serif" font-size="14" lengthAdjust="spacing" textLength="183" x="997.1701" y="37.4807">Referencial Transparency</text><ellipse cx="844.4278" cy="34.4856" fill="#FEFECE" filter="url(#frdy6xrb8tf7e)" rx="100.4278" ry="22.4856" style="stroke:#A80036;stroke-width:1.5;"/><text fill="#000000" font-family="sans-serif" font-size="14" lengthAdjust="spacing" textLength="165" x="761.9278" y="37.3322">Writing Functional APIs</text><ellipse cx="608.4278" cy="34.4856" fill="#FEFECE" filter="url(#frdy6xrb8tf7e)" rx="100.4278" ry="22.4856" style="stroke:#A80036;stroke-width:1.5;"/><text fill="#000000" font-family="sans-serif" font-size="14" lengthAdjust="spacing" textLength="165" x="525.9278" y="37.3322">Higher Order Functions</text><ellipse cx="343.2544" cy="34.2509" fill="#FEFECE" filter="url(#frdy6xrb8tf7e)" rx="129.2544" ry="28.2509" style="stroke:#A80036;stroke-width:1.5;"/><text fill="#000000" font-family="sans-serif" font-size="14" lengthAdjust="spacing" textLength="227" x="229.7544" y="37.0976">Pure Functions - No side effects</text><ellipse cx="92.5998" cy="34.72" fill="#FEFECE" filter="url(#frdy6xrb8tf7e)" rx="86.5998" ry="19.72" style="stroke:#A80036;stroke-width:1.5;"/><text fill="#000000" font-family="sans-serif" font-size="14" lengthAdjust="spacing" textLength="134" x="25.5998" y="37.5666">First Class Citizens</text><!--MD5=[1895b5a40e84641a382b15480a7ee88a]
link fn to tails--><path d="M528.29,178.772 C479.418,188.137 415.915,201.499 360.5,217 C309.861,231.1652 253.337,251.4399 213.869,266.3477 " fill="none" id="fn-to-tails" style="stroke:#A80036;stroke-width:1.0;"/><polygon fill="#A80036" points="209.141,268.1383,218.9744,268.6904,213.8167,266.3669,216.1402,261.2093,209.141,268.1383" style="stroke:#A80036;stroke-width:1.0;"/><text fill="#000000" font-family="sans-serif" font-size="13" lengthAdjust="spacing" textLength="73" x="361.5" y="230.0669">Techniques</text><!--MD5=[afad2d27238ca7bd6da20f57b2dfe32a]
link fn to lazy--><path d="M551.358,183.358 C526.567,192.349 497.54,203.986 472.5,217 C444.507,231.5493 414.804,252.0576 394.525,266.9316 " fill="none" id="fn-to-lazy" style="stroke:#A80036;stroke-width:1.0;"/><polygon fill="#A80036" points="390.345,270.0159,399.9615,267.889,394.3677,267.0464,395.2103,261.4527,390.345,270.0159" style="stroke:#A80036;stroke-width:1.0;"/><text fill="#000000" font-family="sans-serif" font-size="13" lengthAdjust="spacing" textLength="73" x="473.5" y="230.0669">Techniques</text><!--MD5=[868c0fb791ba7422dbaa9d57872e7fd1]
link fn to currying--><path d="M586.544,186.726 C578.559,195.625 569.928,206.297 563.5,217 C553.886,233.0094 546.493,253.0505 541.894,267.4024 " fill="none" id="fn-to-currying" style="stroke:#A80036;stroke-width:1.0;"/><polygon fill="#A80036" points="540.327,272.4146,546.8309,265.0187,541.8194,267.6425,539.1956,262.6309,540.327,272.4146" style="stroke:#A80036;stroke-width:1.0;"/><text fill="#000000" font-family="sans-serif" font-size="13" lengthAdjust="spacing" textLength="73" x="564.5" y="230.0669">Techniques</text><!--MD5=[34841152e9ea908afb83ea3232b0ec34]
link fn to closures--><path d="M623.36,186.794 C629.424,196.057 636.424,206.969 642.5,217 C652.811,234.0248 663.921,253.8396 671.636,267.8561 " fill="none" id="fn-to-closures" style="stroke:#A80036;stroke-width:1.0;"/><polygon fill="#A80036" points="674.115,272.3748,673.2912,262.5605,671.7092,267.9916,666.2781,266.4097,674.115,272.3748" style="stroke:#A80036;stroke-width:1.0;"/><text fill="#000000" font-family="sans-serif" font-size="13" lengthAdjust="spacing" textLength="73" x="653.5" y="230.0669">Techniques</text><!--MD5=[c3cbb805d88c11faabe3aac785024b77]
link fn to composition--><path d="M658.601,184.285 C682.109,193.804 710.411,205.603 735.5,217 C767.731,231.641 803.495,249.4304 830.674,263.279 " fill="none" id="fn-to-composition" style="stroke:#A80036;stroke-width:1.0;"/><polygon fill="#A80036" points="835.303,265.6416,829.1051,257.9875,830.8495,263.3686,825.4683,265.1131,835.303,265.6416" style="stroke:#A80036;stroke-width:1.0;"/><text fill="#000000" font-family="sans-serif" font-size="13" lengthAdjust="spacing" textLength="73" x="771.5" y="230.0669">Techniques</text><!--MD5=[a6db257788e88f45763d52ae17398f8e]
link fn to chaining--><path d="M685.217,179.593 C733.661,189.456 797.462,203.056 853.5,217 C919.331,233.381 994.329,255.1586 1043.38,269.8301 " fill="none" id="fn-to-chaining" style="stroke:#A80036;stroke-width:1.0;"/><polygon fill="#A80036" points="1048.34,271.3161,1040.8587,264.9106,1043.5486,269.887,1038.5722,272.5769,1048.34,271.3161" style="stroke:#A80036;stroke-width:1.0;"/><text fill="#000000" font-family="sans-serif" font-size="13" lengthAdjust="spacing" textLength="73" x="915.5" y="230.0669">Techniques</text><!--MD5=[9284b7c471ffda615089beee62c65391]
reverse link ref to fn--><path d="M1016.09,54.659 C923.347,79.197 763.954,121.37 674.445,145.052 " fill="none" id="ref-backto-fn" style="stroke:#A80036;stroke-width:1.0;"/><polygon fill="#A80036" points="1021,53.36,1011.2785,51.7814,1016.1645,54.6321,1013.3139,59.5182,1021,53.36" style="stroke:#A80036;stroke-width:1.0;"/><text fill="#000000" font-family="sans-serif" font-size="13" lengthAdjust="spacing" textLength="60" x="864.5" y="106.0669">Concepts</text><!--MD5=[6817c18bab52176a3e1cc54afeb2162e]
reverse link api to fn--><path d="M802.929,57.871 C758.999,81.511 690.263,118.5 647.38,141.577 " fill="none" id="api-backto-fn" style="stroke:#A80036;stroke-width:1.0;"/><polygon fill="#A80036" points="807.365,55.483,797.5443,56.2267,802.9623,57.8529,801.3361,63.271,807.365,55.483" style="stroke:#A80036;stroke-width:1.0;"/><text fill="#000000" font-family="sans-serif" font-size="13" lengthAdjust="spacing" textLength="60" x="735.5" y="106.0669">Concepts</text><!--MD5=[d7105b1b9d08f4376d3fa0b420c98a2a]
reverse link high to fn--><path d="M608.5,62.099 C608.5,85.175 608.5,118.207 608.5,139.994 " fill="none" id="high-backto-fn" style="stroke:#A80036;stroke-width:1.0;"/><polygon fill="#A80036" points="608.5,57.044,604.5,66.044,608.5,62.044,612.5,66.044,608.5,57.044" style="stroke:#A80036;stroke-width:1.0;"/><text fill="#000000" font-family="sans-serif" font-size="13" lengthAdjust="spacing" textLength="60" x="609.5" y="106.0669">Concepts</text><!--MD5=[59cc0e43ec7af334fc4483f3b508ea42]
reverse link pure to fn--><path d="M400.577,62.854 C450.058,86.567 520.58,120.365 565.442,141.865 " fill="none" id="pure-backto-fn" style="stroke:#A80036;stroke-width:1.0;"/><polygon fill="#A80036" points="395.855,60.591,402.2414,68.0886,400.3637,62.7525,405.6998,60.8747,395.855,60.591" style="stroke:#A80036;stroke-width:1.0;"/><text fill="#000000" font-family="sans-serif" font-size="13" lengthAdjust="spacing" textLength="60" x="493.5" y="106.0669">Concepts</text><!--MD5=[93046aec1a9131e0e425c6d4d6a6d4d7]
reverse link first to fn--><path d="M150.88,51.173 C165.742,55.098 181.697,59.256 196.5,63 C316.169,93.268 455.912,126.592 538.037,145.97 " fill="none" id="first-backto-fn" style="stroke:#A80036;stroke-width:1.0;"/><polygon fill="#A80036" points="145.885,49.852,153.5631,56.0202,150.7188,51.1304,155.6086,48.2862,145.885,49.852" style="stroke:#A80036;stroke-width:1.0;"/><text fill="#000000" font-family="sans-serif" font-size="13" lengthAdjust="spacing" textLength="60" x="378.5" y="106.0669">Concepts</text><!--MD5=[688d26ed30d6a37b54fa9e8d011d2b19]
@startuml
(Functional Programming) as fn
'Techniques
(Tail call Optimization) as tails
(Lazy Evaluation) as lazy
(Currying) as currying
(Closures) as closures
(Functional Composition) as composition
(Function Chaining) as chaining
'Concepts
(Referencial Transparency) as ref
(Writing Functional APIs) as api
(Higher Order Functions) as high
(Pure Functions - No side effects) as pure
(First Class Citizens) as first

fn -down-> tails : "Techniques"
fn -down-> lazy : "Techniques"
fn -down-> currying : "Techniques"
fn -down-> closures : "Techniques"
fn -down-> composition : "Techniques"
fn -down-> chaining : "Techniques"
fn -up-> ref : "Concepts"
fn -up-> api : "Concepts"
fn -up-> high : "Concepts"
fn -up-> pure : "Concepts"
fn -up-> first : "Concepts"

'fn_interface -up-> c : "Takes/Consumes something"
'fn_interface -up-> p : "Test condition"
'fn_interface -down-> fn : "Takes something, returns something"
'fn_interface -down-> sup : "Supplies/returns something"
@enduml

@startuml
(Functional Programming) as fn
(Tail call Optimization) as tails
(Lazy Evaluation) as lazy
(Currying) as currying
(Closures) as closures
(Functional Composition) as composition
(Function Chaining) as chaining
(Referencial Transparency) as ref
(Writing Functional APIs) as api
(Higher Order Functions) as high
(Pure Functions - No side effects) as pure
(First Class Citizens) as first

fn -down-> tails : "Techniques"
fn -down-> lazy : "Techniques"
fn -down-> currying : "Techniques"
fn -down-> closures : "Techniques"
fn -down-> composition : "Techniques"
fn -down-> chaining : "Techniques"
fn -up-> ref : "Concepts"
fn -up-> api : "Concepts"
fn -up-> high : "Concepts"
fn -up-> pure : "Concepts"
fn -up-> first : "Concepts"

@enduml

PlantUML version 1.2021.7(Sun May 23 12:40:07 UTC 2021)
(GPL source distribution)
Java Runtime: Java(TM) SE Runtime Environment
JVM: Java HotSpot(TM) 64-Bit Server VM
Default Encoding: UTF-8
Language: en
Country: US
--></g></svg>