<?xml version="1.0" encoding="UTF-8" standalone="no"?><svg xmlns="http://www.w3.org/2000/svg" xmlns:xlink="http://www.w3.org/1999/xlink" contentScriptType="application/ecmascript" contentStyleType="text/css" height="282px" preserveAspectRatio="none" style="width:466px;height:282px;background:#FFFFFF;" version="1.1" viewBox="0 0 466 282" width="466px" zoomAndPan="magnify"><defs><filter height="300%" id="f5zequ1p6rdf4" width="300%" x="-1" y="-1"><feGaussianBlur result="blurOut" stdDeviation="2.0"/><feColorMatrix in="blurOut" result="blurOut2" type="matrix" values="0 0 0 0 0 0 0 0 0 0 0 0 0 0 0 0 0 0 .4 0"/><feOffset dx="4.0" dy="4.0" in="blurOut2" result="blurOut3"/><feBlend in="SourceGraphic" in2="blurOut3" mode="normal"/></filter></defs><g><!--MD5=[c410b497381561a9283729bb4d059fee]
class IBuilder--><rect codeLine="1" fill="#FEFECE" filter="url(#f5zequ1p6rdf4)" height="92.3516" id="IBuilder" style="stroke:#A80036;stroke-width:1.5;" width="202" x="215" y="176"/><ellipse cx="280.25" cy="194.9688" fill="#B4A7E5" rx="11" ry="11" style="stroke:#A80036;stroke-width:1.0;"/><path d="M281.2031,191.75 L282.9219,191.75 C283.3125,191.75 283.5,191.7188 283.625,191.6406 C283.8906,191.4844 284.0313,191.2031 284.0313,190.9063 C284.0313,190.6406 283.9219,190.375 283.6875,190.2031 C283.5156,190.0938 283.375,190.0625 282.9219,190.0625 L277.7813,190.0625 C277.3438,190.0625 277.2188,190.0781 277.0625,190.1719 C276.8125,190.3281 276.6563,190.625 276.6563,190.9063 C276.6563,191.1875 276.7969,191.4375 277.0156,191.6094 C277.1719,191.7188 277.3594,191.75 277.7813,191.75 L279.5,191.75 L279.5,198.2656 L277.7813,198.2656 C277.3438,198.2656 277.2188,198.2813 277.0625,198.3906 C276.8125,198.5469 276.6563,198.8281 276.6563,199.125 C276.6563,199.375 276.7969,199.6406 277.0156,199.7969 C277.1719,199.9219 277.375,199.9688 277.7813,199.9688 L282.9219,199.9688 C283.6719,199.9688 284.0313,199.6875 284.0313,199.125 C284.0313,198.8438 283.9219,198.5938 283.6875,198.4219 C283.5156,198.2969 283.375,198.2656 282.9219,198.2656 L281.2031,198.2656 L281.2031,191.75 Z " fill="#000000"/><text fill="#000000" font-family="sans-serif" font-size="12" font-style="italic" lengthAdjust="spacing" textLength="67" x="298.75" y="192.1387">«interface»</text><text fill="#000000" font-family="sans-serif" font-size="12" font-style="italic" lengthAdjust="spacing" textLength="46" x="309.25" y="206.1074">IBuilder</text><line style="stroke:#A80036;stroke-width:1.5;" x1="216" x2="416" y1="213.9375" y2="213.9375"/><line style="stroke:#A80036;stroke-width:1.5;" x1="216" x2="416" y1="221.9375" y2="221.9375"/><ellipse cx="226" cy="232.9375" fill="#84BE84" rx="3" ry="3" style="stroke:#038048;stroke-width:1.0;"/><text fill="#000000" font-family="sans-serif" font-size="11" lengthAdjust="spacing" textLength="136" x="235" y="236.1479">builderPiece1() : Builder</text><ellipse cx="226" cy="245.7422" fill="#84BE84" rx="3" ry="3" style="stroke:#038048;stroke-width:1.0;"/><text fill="#000000" font-family="sans-serif" font-size="11" lengthAdjust="spacing" textLength="136" x="235" y="248.9526">builderPiece2() : Builder</text><ellipse cx="226" cy="258.5469" fill="#84BE84" rx="3" ry="3" style="stroke:#038048;stroke-width:1.0;"/><text fill="#000000" font-family="sans-serif" font-size="11" lengthAdjust="spacing" textLength="176" x="235" y="261.7573">getCompleteProduct() : Product</text><!--MD5=[a8dc8aefce085dae70bec15e302cfec9]
class Builder--><rect codeLine="6" fill="#FEFECE" filter="url(#f5zequ1p6rdf4)" height="92.3516" id="Builder" style="stroke:#A80036;stroke-width:1.5;" width="202" x="7" y="7"/><ellipse cx="72.25" cy="25.9688" fill="#ADD1B2" rx="11" ry="11" style="stroke:#A80036;stroke-width:1.0;"/><path d="M74.5938,21.6406 C73.6563,21.2031 73.0625,21.0625 72.1875,21.0625 C69.5625,21.0625 67.5625,23.1406 67.5625,25.8594 L67.5625,26.9844 C67.5625,29.5625 69.6719,31.4531 72.5625,31.4531 C73.7813,31.4531 74.9375,31.1563 75.6875,30.6094 C76.2656,30.2031 76.5938,29.75 76.5938,29.3594 C76.5938,28.9063 76.2031,28.5156 75.7344,28.5156 C75.5156,28.5156 75.3125,28.5938 75.125,28.7813 C74.6719,29.2656 74.6719,29.2656 74.4844,29.3594 C74.0625,29.625 73.375,29.75 72.6094,29.75 C70.5625,29.75 69.2656,28.6563 69.2656,26.9531 L69.2656,25.8594 C69.2656,24.0781 70.5156,22.7656 72.25,22.7656 C72.8281,22.7656 73.4375,22.9219 73.9063,23.1719 C74.3906,23.4531 74.5625,23.6719 74.6563,24.0781 C74.7188,24.4844 74.75,24.6094 74.8906,24.7344 C75.0313,24.875 75.2656,24.9844 75.4844,24.9844 C75.75,24.9844 76.0156,24.8438 76.1875,24.625 C76.2969,24.4688 76.3281,24.2813 76.3281,23.8594 L76.3281,22.4375 C76.3281,22 76.3125,21.875 76.2188,21.7188 C76.0625,21.4531 75.7813,21.3125 75.4844,21.3125 C75.1875,21.3125 74.9844,21.4063 74.7656,21.7188 L74.5938,21.6406 Z " fill="#000000"/><text fill="#000000" font-family="sans-serif" font-size="12" font-style="italic" lengthAdjust="spacing" textLength="67" x="90.75" y="23.1387">«concrete»</text><text fill="#000000" font-family="sans-serif" font-size="12" lengthAdjust="spacing" textLength="42" x="103.25" y="37.1074">Builder</text><line style="stroke:#A80036;stroke-width:1.5;" x1="8" x2="208" y1="44.9375" y2="44.9375"/><line style="stroke:#A80036;stroke-width:1.5;" x1="8" x2="208" y1="52.9375" y2="52.9375"/><ellipse cx="18" cy="63.9375" fill="#84BE84" rx="3" ry="3" style="stroke:#038048;stroke-width:1.0;"/><text fill="#000000" font-family="sans-serif" font-size="11" lengthAdjust="spacing" textLength="136" x="27" y="67.1479">builderPiece1() : Builder</text><ellipse cx="18" cy="76.7422" fill="#84BE84" rx="3" ry="3" style="stroke:#038048;stroke-width:1.0;"/><text fill="#000000" font-family="sans-serif" font-size="11" lengthAdjust="spacing" textLength="136" x="27" y="79.9526">builderPiece2() : Builder</text><ellipse cx="18" cy="89.5469" fill="#84BE84" rx="3" ry="3" style="stroke:#038048;stroke-width:1.0;"/><text fill="#000000" font-family="sans-serif" font-size="11" lengthAdjust="spacing" textLength="176" x="27" y="92.7573">getCompleteProduct() : Product</text><!--MD5=[72136138052d025cffdce3c22fbd185f]
class Product--><rect codeLine="11" fill="#FEFECE" filter="url(#f5zequ1p6rdf4)" height="48" id="Product" style="stroke:#A80036;stroke-width:1.5;" width="77" x="69.5" y="198"/><ellipse cx="84.5" cy="214" fill="#ADD1B2" rx="11" ry="11" style="stroke:#A80036;stroke-width:1.0;"/><path d="M86.8438,209.6719 C85.9063,209.2344 85.3125,209.0938 84.4375,209.0938 C81.8125,209.0938 79.8125,211.1719 79.8125,213.8906 L79.8125,215.0156 C79.8125,217.5938 81.9219,219.4844 84.8125,219.4844 C86.0313,219.4844 87.1875,219.1875 87.9375,218.6406 C88.5156,218.2344 88.8438,217.7813 88.8438,217.3906 C88.8438,216.9375 88.4531,216.5469 87.9844,216.5469 C87.7656,216.5469 87.5625,216.625 87.375,216.8125 C86.9219,217.2969 86.9219,217.2969 86.7344,217.3906 C86.3125,217.6563 85.625,217.7813 84.8594,217.7813 C82.8125,217.7813 81.5156,216.6875 81.5156,214.9844 L81.5156,213.8906 C81.5156,212.1094 82.7656,210.7969 84.5,210.7969 C85.0781,210.7969 85.6875,210.9531 86.1563,211.2031 C86.6406,211.4844 86.8125,211.7031 86.9063,212.1094 C86.9688,212.5156 87,212.6406 87.1406,212.7656 C87.2813,212.9063 87.5156,213.0156 87.7344,213.0156 C88,213.0156 88.2656,212.875 88.4375,212.6563 C88.5469,212.5 88.5781,212.3125 88.5781,211.8906 L88.5781,210.4688 C88.5781,210.0313 88.5625,209.9063 88.4688,209.75 C88.3125,209.4844 88.0313,209.3438 87.7344,209.3438 C87.4375,209.3438 87.2344,209.4375 87.0156,209.75 L86.8438,209.6719 Z " fill="#000000"/><text fill="#000000" font-family="sans-serif" font-size="12" lengthAdjust="spacing" textLength="45" x="98.5" y="218.1543">Product</text><line style="stroke:#A80036;stroke-width:1.5;" x1="70.5" x2="145.5" y1="230" y2="230"/><line style="stroke:#A80036;stroke-width:1.5;" x1="70.5" x2="145.5" y1="238" y2="238"/><!--MD5=[57adcbfcd00175f9b7abe25398e7de0c]
class Director--><rect codeLine="12" fill="#FEFECE" filter="url(#f5zequ1p6rdf4)" height="66.7422" id="Director" style="stroke:#A80036;stroke-width:1.5;" width="208" x="244" y="19.5"/><ellipse cx="312.25" cy="38.4688" fill="#ADD1B2" rx="11" ry="11" style="stroke:#A80036;stroke-width:1.0;"/><path d="M314.5938,34.1406 C313.6563,33.7031 313.0625,33.5625 312.1875,33.5625 C309.5625,33.5625 307.5625,35.6406 307.5625,38.3594 L307.5625,39.4844 C307.5625,42.0625 309.6719,43.9531 312.5625,43.9531 C313.7813,43.9531 314.9375,43.6563 315.6875,43.1094 C316.2656,42.7031 316.5938,42.25 316.5938,41.8594 C316.5938,41.4063 316.2031,41.0156 315.7344,41.0156 C315.5156,41.0156 315.3125,41.0938 315.125,41.2813 C314.6719,41.7656 314.6719,41.7656 314.4844,41.8594 C314.0625,42.125 313.375,42.25 312.6094,42.25 C310.5625,42.25 309.2656,41.1563 309.2656,39.4531 L309.2656,38.3594 C309.2656,36.5781 310.5156,35.2656 312.25,35.2656 C312.8281,35.2656 313.4375,35.4219 313.9063,35.6719 C314.3906,35.9531 314.5625,36.1719 314.6563,36.5781 C314.7188,36.9844 314.75,37.1094 314.8906,37.2344 C315.0313,37.375 315.2656,37.4844 315.4844,37.4844 C315.75,37.4844 316.0156,37.3438 316.1875,37.125 C316.2969,36.9688 316.3281,36.7813 316.3281,36.3594 L316.3281,34.9375 C316.3281,34.5 316.3125,34.375 316.2188,34.2188 C316.0625,33.9531 315.7813,33.8125 315.4844,33.8125 C315.1875,33.8125 314.9844,33.9063 314.7656,34.2188 L314.5938,34.1406 Z " fill="#000000"/><text fill="#000000" font-family="sans-serif" font-size="12" font-style="italic" lengthAdjust="spacing" textLength="67" x="330.75" y="35.6387">«executor»</text><text fill="#000000" font-family="sans-serif" font-size="12" lengthAdjust="spacing" textLength="49" x="339.75" y="49.6074">Director</text><line style="stroke:#A80036;stroke-width:1.5;" x1="245" x2="451" y1="57.4375" y2="57.4375"/><line style="stroke:#A80036;stroke-width:1.5;" x1="245" x2="451" y1="65.4375" y2="65.4375"/><ellipse cx="255" cy="76.4375" fill="#84BE84" rx="3" ry="3" style="stroke:#038048;stroke-width:1.0;"/><text fill="#000000" font-family="sans-serif" font-size="11" lengthAdjust="spacing" textLength="182" x="264" y="79.6479">create(builder: builder) : Product</text><!--MD5=[13351bf05a68676a40cc22274d5d7f8a]
link Builder to Product--><path codeLine="16" d="M108,99.193 C108,128.953 108,167.002 108,192.5887 " fill="none" id="Builder-to-Product" style="stroke:#A80036;stroke-width:1.0;stroke-dasharray:7.0,7.0;"/><polygon fill="#A80036" points="108,197.852,112,188.852,108,192.852,104,188.852,108,197.852" style="stroke:#A80036;stroke-width:1.0;"/><text fill="#000000" font-family="sans-serif" font-size="13" lengthAdjust="spacing" textLength="64" x="109" y="142.0669">«creates»</text><!--MD5=[137014f0d69119817bec4225b2d27934]
link Builder to IBuilder--><path codeLine="17" d="M164.288,99.193 C188.798,118.871 217.822,142.174 243.887,163.102 " fill="none" id="Builder-to-IBuilder" style="stroke:#A80036;stroke-width:1.0;stroke-dasharray:7.0,7.0;"/><polygon fill="none" points="248.454,157.792,259.667,175.7713,239.689,168.7083,248.454,157.792" style="stroke:#A80036;stroke-width:1.0;"/><!--MD5=[fed80e29b81650f0f04c6f74d4acb5b7]
reverse link Director to IBuilder--><path codeLine="18" d="M339.276,99.53 C334.729,123.257 329.187,152.181 324.651,175.8521 " fill="none" id="Director-backto-IBuilder" style="stroke:#A80036;stroke-width:1.0;"/><polygon fill="#FFFFFF" points="341.754,86.596,336.696,91.7357,339.495,98.3815,344.553,93.2417,341.754,86.596" style="stroke:#A80036;stroke-width:1.0;"/><!--MD5=[f8f50b2fe9da3bc56003a80522475176]
@startuml
interface IBuilder <<interface>> {
    + builderPiece1() : Builder
    + builderPiece2() : Builder
    + getCompleteProduct() : Product
}
class Builder <<concrete>> {
    + builderPiece1() : Builder
    + builderPiece2() : Builder
    + getCompleteProduct() : Product
}
class Product
class Director <<executor>> {
    + create(builder: builder) : Product
}

Builder ..> Product : <<creates>>
Builder ..|> IBuilder
Director o- - IBuilder
@enduml

PlantUML version 1.2021.7(Sun May 23 12:40:07 UTC 2021)
(GPL source distribution)
Java Runtime: Java(TM) SE Runtime Environment
JVM: Java HotSpot(TM) 64-Bit Server VM
Default Encoding: UTF-8
Language: en
Country: US
--></g></svg>