<?xml version="1.0" encoding="UTF-8" standalone="no"?><svg xmlns="http://www.w3.org/2000/svg" xmlns:xlink="http://www.w3.org/1999/xlink" contentScriptType="application/ecmascript" contentStyleType="text/css" height="231px" preserveAspectRatio="none" style="width:299px;height:231px;background:#FFFFFF;" version="1.1" viewBox="0 0 299 231" width="299px" zoomAndPan="magnify"><defs><filter height="300%" id="f1vat5nh0x1xtq" width="300%" x="-1" y="-1"><feGaussianBlur result="blurOut" stdDeviation="2.0"/><feColorMatrix in="blurOut" result="blurOut2" type="matrix" values="0 0 0 0 0 0 0 0 0 0 0 0 0 0 0 0 0 0 .4 0"/><feOffset dx="4.0" dy="4.0" in="blurOut2" result="blurOut3"/><feBlend in="SourceGraphic" in2="blurOut3" mode="normal"/></filter></defs><g><!--MD5=[11008d568be52109e77f2977709dd853]
class ICommand--><rect codeLine="1" fill="#FEFECE" filter="url(#f1vat5nh0x1xtq)" height="66.7422" id="ICommand" style="stroke:#A80036;stroke-width:1.5;" width="117" x="12" y="151"/><ellipse cx="35.55" cy="169.9688" fill="#B4A7E5" rx="11" ry="11" style="stroke:#A80036;stroke-width:1.0;"/><path d="M36.5031,166.75 L38.2219,166.75 C38.6125,166.75 38.8,166.7188 38.925,166.6406 C39.1906,166.4844 39.3313,166.2031 39.3313,165.9063 C39.3313,165.6406 39.2219,165.375 38.9875,165.2031 C38.8156,165.0938 38.675,165.0625 38.2219,165.0625 L33.0813,165.0625 C32.6438,165.0625 32.5188,165.0781 32.3625,165.1719 C32.1125,165.3281 31.9562,165.625 31.9562,165.9063 C31.9562,166.1875 32.0969,166.4375 32.3156,166.6094 C32.4719,166.7188 32.6594,166.75 33.0813,166.75 L34.8,166.75 L34.8,173.2656 L33.0813,173.2656 C32.6438,173.2656 32.5188,173.2813 32.3625,173.3906 C32.1125,173.5469 31.9562,173.8281 31.9562,174.125 C31.9562,174.375 32.0969,174.6406 32.3156,174.7969 C32.4719,174.9219 32.675,174.9688 33.0813,174.9688 L38.2219,174.9688 C38.9719,174.9688 39.3313,174.6875 39.3313,174.125 C39.3313,173.8438 39.2219,173.5938 38.9875,173.4219 C38.8156,173.2969 38.675,173.2656 38.2219,173.2656 L36.5031,173.2656 L36.5031,166.75 Z " fill="#000000"/><text fill="#000000" font-family="sans-serif" font-size="12" font-style="italic" lengthAdjust="spacing" textLength="67" x="50.95" y="167.1387">«interface»</text><text fill="#000000" font-family="sans-serif" font-size="12" font-style="italic" lengthAdjust="spacing" textLength="66" x="51.45" y="181.1074">ICommand</text><line style="stroke:#A80036;stroke-width:1.5;" x1="13" x2="128" y1="188.9375" y2="188.9375"/><line style="stroke:#A80036;stroke-width:1.5;" x1="13" x2="128" y1="196.9375" y2="196.9375"/><ellipse cx="23" cy="207.9375" fill="#84BE84" rx="3" ry="3" style="stroke:#038048;stroke-width:1.0;"/><text fill="#000000" font-family="sans-serif" font-size="11" lengthAdjust="spacing" textLength="91" x="32" y="211.1479">execute() : void</text><!--MD5=[d01e39adb8cc3240d418de1aedb45e74]
class Invoker--><rect codeLine="5" fill="#FEFECE" filter="url(#f1vat5nh0x1xtq)" height="48" id="Invoker" style="stroke:#A80036;stroke-width:1.5;" width="77" x="7" y="16.5"/><ellipse cx="22" cy="32.5" fill="#ADD1B2" rx="11" ry="11" style="stroke:#A80036;stroke-width:1.0;"/><path d="M24.3438,28.1719 C23.4063,27.7344 22.8125,27.5938 21.9375,27.5938 C19.3125,27.5938 17.3125,29.6719 17.3125,32.3906 L17.3125,33.5156 C17.3125,36.0938 19.4219,37.9844 22.3125,37.9844 C23.5313,37.9844 24.6875,37.6875 25.4375,37.1406 C26.0156,36.7344 26.3438,36.2813 26.3438,35.8906 C26.3438,35.4375 25.9531,35.0469 25.4844,35.0469 C25.2656,35.0469 25.0625,35.125 24.875,35.3125 C24.4219,35.7969 24.4219,35.7969 24.2344,35.8906 C23.8125,36.1563 23.125,36.2813 22.3594,36.2813 C20.3125,36.2813 19.0156,35.1875 19.0156,33.4844 L19.0156,32.3906 C19.0156,30.6094 20.2656,29.2969 22,29.2969 C22.5781,29.2969 23.1875,29.4531 23.6563,29.7031 C24.1406,29.9844 24.3125,30.2031 24.4063,30.6094 C24.4688,31.0156 24.5,31.1406 24.6406,31.2656 C24.7813,31.4063 25.0156,31.5156 25.2344,31.5156 C25.5,31.5156 25.7656,31.375 25.9375,31.1563 C26.0469,31 26.0781,30.8125 26.0781,30.3906 L26.0781,28.9688 C26.0781,28.5313 26.0625,28.4063 25.9688,28.25 C25.8125,27.9844 25.5313,27.8438 25.2344,27.8438 C24.9375,27.8438 24.7344,27.9375 24.5156,28.25 L24.3438,28.1719 Z " fill="#000000"/><text fill="#000000" font-family="sans-serif" font-size="12" lengthAdjust="spacing" textLength="45" x="36" y="36.6543">Invoker</text><line style="stroke:#A80036;stroke-width:1.5;" x1="8" x2="83" y1="48.5" y2="48.5"/><line style="stroke:#A80036;stroke-width:1.5;" x1="8" x2="83" y1="56.5" y2="56.5"/><!--MD5=[521817ab83e81da341a3f4b5e91bae41]
class Command--><rect codeLine="6" fill="#FEFECE" filter="url(#f1vat5nh0x1xtq)" height="66.7422" id="Command" style="stroke:#A80036;stroke-width:1.5;" width="117" x="149" y="7"/><ellipse cx="173.9" cy="25.9688" fill="#ADD1B2" rx="11" ry="11" style="stroke:#A80036;stroke-width:1.0;"/><path d="M176.2438,21.6406 C175.3063,21.2031 174.7125,21.0625 173.8375,21.0625 C171.2125,21.0625 169.2125,23.1406 169.2125,25.8594 L169.2125,26.9844 C169.2125,29.5625 171.3219,31.4531 174.2125,31.4531 C175.4313,31.4531 176.5875,31.1563 177.3375,30.6094 C177.9156,30.2031 178.2438,29.75 178.2438,29.3594 C178.2438,28.9063 177.8531,28.5156 177.3844,28.5156 C177.1656,28.5156 176.9625,28.5938 176.775,28.7813 C176.3219,29.2656 176.3219,29.2656 176.1344,29.3594 C175.7125,29.625 175.025,29.75 174.2594,29.75 C172.2125,29.75 170.9156,28.6563 170.9156,26.9531 L170.9156,25.8594 C170.9156,24.0781 172.1656,22.7656 173.9,22.7656 C174.4781,22.7656 175.0875,22.9219 175.5563,23.1719 C176.0406,23.4531 176.2125,23.6719 176.3063,24.0781 C176.3688,24.4844 176.4,24.6094 176.5406,24.7344 C176.6813,24.875 176.9156,24.9844 177.1344,24.9844 C177.4,24.9844 177.6656,24.8438 177.8375,24.625 C177.9469,24.4688 177.9781,24.2813 177.9781,23.8594 L177.9781,22.4375 C177.9781,22 177.9625,21.875 177.8688,21.7188 C177.7125,21.4531 177.4313,21.3125 177.1344,21.3125 C176.8375,21.3125 176.6344,21.4063 176.4156,21.7188 L176.2438,21.6406 Z " fill="#000000"/><text fill="#000000" font-family="sans-serif" font-size="12" font-style="italic" lengthAdjust="spacing" textLength="67" x="188.1" y="23.1387">«concrete»</text><text fill="#000000" font-family="sans-serif" font-size="12" lengthAdjust="spacing" textLength="60" x="191.6" y="37.1074">Command</text><line style="stroke:#A80036;stroke-width:1.5;" x1="150" x2="265" y1="44.9375" y2="44.9375"/><line style="stroke:#A80036;stroke-width:1.5;" x1="150" x2="265" y1="52.9375" y2="52.9375"/><ellipse cx="160" cy="63.9375" fill="#84BE84" rx="3" ry="3" style="stroke:#038048;stroke-width:1.0;"/><text fill="#000000" font-family="sans-serif" font-size="11" lengthAdjust="spacing" textLength="91" x="169" y="67.1479">execute() : void</text><!--MD5=[bcee973e2623bef0127252815a37a6e8]
class Receiver--><rect codeLine="9" fill="#FEFECE" filter="url(#f1vat5nh0x1xtq)" height="60.8047" id="Receiver" style="stroke:#A80036;stroke-width:1.5;" width="95" x="190" y="154"/><ellipse cx="209.5" cy="170" fill="#ADD1B2" rx="11" ry="11" style="stroke:#A80036;stroke-width:1.0;"/><path d="M211.8438,165.6719 C210.9063,165.2344 210.3125,165.0938 209.4375,165.0938 C206.8125,165.0938 204.8125,167.1719 204.8125,169.8906 L204.8125,171.0156 C204.8125,173.5938 206.9219,175.4844 209.8125,175.4844 C211.0313,175.4844 212.1875,175.1875 212.9375,174.6406 C213.5156,174.2344 213.8438,173.7813 213.8438,173.3906 C213.8438,172.9375 213.4531,172.5469 212.9844,172.5469 C212.7656,172.5469 212.5625,172.625 212.375,172.8125 C211.9219,173.2969 211.9219,173.2969 211.7344,173.3906 C211.3125,173.6563 210.625,173.7813 209.8594,173.7813 C207.8125,173.7813 206.5156,172.6875 206.5156,170.9844 L206.5156,169.8906 C206.5156,168.1094 207.7656,166.7969 209.5,166.7969 C210.0781,166.7969 210.6875,166.9531 211.1563,167.2031 C211.6406,167.4844 211.8125,167.7031 211.9063,168.1094 C211.9688,168.5156 212,168.6406 212.1406,168.7656 C212.2813,168.9063 212.5156,169.0156 212.7344,169.0156 C213,169.0156 213.2656,168.875 213.4375,168.6563 C213.5469,168.5 213.5781,168.3125 213.5781,167.8906 L213.5781,166.4688 C213.5781,166.0313 213.5625,165.9063 213.4688,165.75 C213.3125,165.4844 213.0313,165.3438 212.7344,165.3438 C212.4375,165.3438 212.2344,165.4375 212.0156,165.75 L211.8438,165.6719 Z " fill="#000000"/><text fill="#000000" font-family="sans-serif" font-size="12" lengthAdjust="spacing" textLength="53" x="224.5" y="174.1543">Receiver</text><line style="stroke:#A80036;stroke-width:1.5;" x1="191" x2="284" y1="186" y2="186"/><ellipse cx="201" cy="197" rx="3" ry="3" style="stroke:#038048;stroke-width:1.0;fill:none;"/><text fill="#000000" font-family="sans-serif" font-size="11" lengthAdjust="spacing" textLength="69" x="210" y="200.2104">action : void</text><line style="stroke:#A80036;stroke-width:1.5;" x1="191" x2="284" y1="206.8047" y2="206.8047"/><!--MD5=[4526d7d8079fdd05945dadc78319578c]
reverse link Invoker to ICommand--><path codeLine="13" d="M51.8806,77.742 C55.8476,100.274 60.9061,129.0065 64.7491,150.8346 " fill="none" id="Invoker-backto-ICommand" style="stroke:#A80036;stroke-width:1.0;"/><polygon fill="#A80036" points="49.5723,64.631,46.6733,71.2337,51.6532,76.4492,54.5521,69.8465,49.5723,64.631" style="stroke:#A80036;stroke-width:1.0;"/><!--MD5=[6d983af2307af7ce711affc9cc46c4f9]
link Command to ICommand--><path codeLine="14" d="M153.983,74.324 C141.876,83.109 129.621,93.197 119.5,104 C111.293,112.76 103.7346,123.1032 97.136,133.3805 " fill="none" id="Command-to-ICommand" style="stroke:#A80036;stroke-width:1.0;stroke-dasharray:7.0,7.0;"/><polygon fill="none" points="102.9467,137.3031,86.68,150.8824,90.9282,130.1229,102.9467,137.3031" style="stroke:#A80036;stroke-width:1.0;"/><text fill="#000000" font-family="sans-serif" font-size="13" lengthAdjust="spacing" textLength="92" x="120.5" y="117.0669">«implements»</text><!--MD5=[aeb13b6231cf3248d0cdc9d544e734dc]
link Command to Receiver--><path codeLine="15" d="M214.383,74.078 C219.111,96.458 225.379,126.1275 230.195,148.9252 " fill="none" id="Command-to-Receiver" style="stroke:#A80036;stroke-width:1.0;"/><polygon fill="#A80036" points="231.262,153.9738,233.3155,144.3414,230.2286,149.0818,225.4882,145.9948,231.262,153.9738" style="stroke:#A80036;stroke-width:1.0;"/><text fill="#000000" font-family="sans-serif" font-size="13" lengthAdjust="spacing" textLength="46" x="223.5" y="117.0669">«uses»</text><!--MD5=[c4dc5b463836376518f126efffcd546d]
@startuml
interface ICommand <<interface>> {
    + execute() : void
}

class Invoker
class Command <<concrete>> {
    + execute() : void
}
class Receiver {
    + action : void
}

Invoker *- - ICommand
Command ..|> ICommand : <<implements>>
Command - -> Receiver : <<uses>>
@enduml

PlantUML version 1.2021.7(Sun May 23 12:40:07 UTC 2021)
(GPL source distribution)
Java Runtime: Java(TM) SE Runtime Environment
JVM: Java HotSpot(TM) 64-Bit Server VM
Default Encoding: UTF-8
Language: en
Country: US
--></g></svg>