<?xml version="1.0" encoding="UTF-8" standalone="no"?><svg xmlns="http://www.w3.org/2000/svg" xmlns:xlink="http://www.w3.org/1999/xlink" contentScriptType="application/ecmascript" contentStyleType="text/css" height="348px" preserveAspectRatio="none" style="width:384px;height:348px;background:#FFFFFF;" version="1.1" viewBox="0 0 384 348" width="384px" zoomAndPan="magnify"><defs><filter height="300%" id="f1kafhwo6vfcw5" width="300%" x="-1" y="-1"><feGaussianBlur result="blurOut" stdDeviation="2.0"/><feColorMatrix in="blurOut" result="blurOut2" type="matrix" values="0 0 0 0 0 0 0 0 0 0 0 0 0 0 0 0 0 0 .4 0"/><feOffset dx="4.0" dy="4.0" in="blurOut2" result="blurOut3"/><feBlend in="SourceGraphic" in2="blurOut3" mode="normal"/></filter></defs><g><!--MD5=[4e13963c9dc916a21a8436ef39422b32]
class Component--><rect codeLine="1" fill="#FEFECE" filter="url(#f1kafhwo6vfcw5)" height="66.7422" id="Component" style="stroke:#A80036;stroke-width:1.5;" width="123" x="220.5" y="7"/><ellipse cx="244.95" cy="25.9688" fill="#B4A7E5" rx="11" ry="11" style="stroke:#A80036;stroke-width:1.0;"/><path d="M245.9031,22.75 L247.6219,22.75 C248.0125,22.75 248.2,22.7188 248.325,22.6406 C248.5906,22.4844 248.7313,22.2031 248.7313,21.9063 C248.7313,21.6406 248.6219,21.375 248.3875,21.2031 C248.2156,21.0938 248.075,21.0625 247.6219,21.0625 L242.4813,21.0625 C242.0438,21.0625 241.9188,21.0781 241.7625,21.1719 C241.5125,21.3281 241.3563,21.625 241.3563,21.9063 C241.3563,22.1875 241.4969,22.4375 241.7156,22.6094 C241.8719,22.7188 242.0594,22.75 242.4813,22.75 L244.2,22.75 L244.2,29.2656 L242.4813,29.2656 C242.0438,29.2656 241.9188,29.2813 241.7625,29.3906 C241.5125,29.5469 241.3563,29.8281 241.3563,30.125 C241.3563,30.375 241.4969,30.6406 241.7156,30.7969 C241.8719,30.9219 242.075,30.9688 242.4813,30.9688 L247.6219,30.9688 C248.3719,30.9688 248.7313,30.6875 248.7313,30.125 C248.7313,29.8438 248.6219,29.5938 248.3875,29.4219 C248.2156,29.2969 248.075,29.2656 247.6219,29.2656 L245.9031,29.2656 L245.9031,22.75 Z " fill="#000000"/><text fill="#000000" font-family="sans-serif" font-size="12" font-style="italic" lengthAdjust="spacing" textLength="67" x="262.55" y="23.1387">«interface»</text><text fill="#000000" font-family="sans-serif" font-size="12" font-style="italic" lengthAdjust="spacing" textLength="70" x="261.05" y="37.1074">Component</text><line style="stroke:#A80036;stroke-width:1.5;" x1="221.5" x2="342.5" y1="44.9375" y2="44.9375"/><line style="stroke:#A80036;stroke-width:1.5;" x1="221.5" x2="342.5" y1="52.9375" y2="52.9375"/><ellipse cx="231.5" cy="63.9375" fill="#84BE84" rx="3" ry="3" style="stroke:#038048;stroke-width:1.0;"/><text fill="#000000" font-family="sans-serif" font-size="11" lengthAdjust="spacing" textLength="97" x="240.5" y="67.1479">operation() : void</text><!--MD5=[b5bc18f2ff550a3ef28474c0b2646ebb]
class ConcreteComponent--><rect codeLine="5" fill="#FEFECE" filter="url(#f1kafhwo6vfcw5)" height="60.8047" id="ConcreteComponent" style="stroke:#A80036;stroke-width:1.5;" width="156" x="7" y="137"/><ellipse cx="22" cy="153" fill="#ADD1B2" rx="11" ry="11" style="stroke:#A80036;stroke-width:1.0;"/><path d="M24.3438,148.6719 C23.4063,148.2344 22.8125,148.0938 21.9375,148.0938 C19.3125,148.0938 17.3125,150.1719 17.3125,152.8906 L17.3125,154.0156 C17.3125,156.5938 19.4219,158.4844 22.3125,158.4844 C23.5313,158.4844 24.6875,158.1875 25.4375,157.6406 C26.0156,157.2344 26.3438,156.7813 26.3438,156.3906 C26.3438,155.9375 25.9531,155.5469 25.4844,155.5469 C25.2656,155.5469 25.0625,155.625 24.875,155.8125 C24.4219,156.2969 24.4219,156.2969 24.2344,156.3906 C23.8125,156.6563 23.125,156.7813 22.3594,156.7813 C20.3125,156.7813 19.0156,155.6875 19.0156,153.9844 L19.0156,152.8906 C19.0156,151.1094 20.2656,149.7969 22,149.7969 C22.5781,149.7969 23.1875,149.9531 23.6563,150.2031 C24.1406,150.4844 24.3125,150.7031 24.4063,151.1094 C24.4688,151.5156 24.5,151.6406 24.6406,151.7656 C24.7813,151.9063 25.0156,152.0156 25.2344,152.0156 C25.5,152.0156 25.7656,151.875 25.9375,151.6563 C26.0469,151.5 26.0781,151.3125 26.0781,150.8906 L26.0781,149.4688 C26.0781,149.0313 26.0625,148.9063 25.9688,148.75 C25.8125,148.4844 25.5313,148.3438 25.2344,148.3438 C24.9375,148.3438 24.7344,148.4375 24.5156,148.75 L24.3438,148.6719 Z " fill="#000000"/><text fill="#000000" font-family="sans-serif" font-size="12" lengthAdjust="spacing" textLength="124" x="36" y="157.1543">ConcreteComponent</text><line style="stroke:#A80036;stroke-width:1.5;" x1="8" x2="162" y1="169" y2="169"/><line style="stroke:#A80036;stroke-width:1.5;" x1="8" x2="162" y1="177" y2="177"/><ellipse cx="18" cy="188" fill="#84BE84" rx="3" ry="3" style="stroke:#038048;stroke-width:1.0;"/><text fill="#000000" font-family="sans-serif" font-size="11" lengthAdjust="spacing" textLength="97" x="27" y="191.2104">operation() : void</text><!--MD5=[f1e098b424af4b1d1d780c20b231553a]
class ObjectToBeDecorated--><rect codeLine="9" fill="#FEFECE" filter="url(#f1kafhwo6vfcw5)" height="66.7422" id="ObjectToBeDecorated" style="stroke:#A80036;stroke-width:1.5;" width="167" x="198.5" y="134"/><ellipse cx="213.5" cy="152.9688" fill="#ADD1B2" rx="11" ry="11" style="stroke:#A80036;stroke-width:1.0;"/><path d="M215.8438,148.6406 C214.9063,148.2031 214.3125,148.0625 213.4375,148.0625 C210.8125,148.0625 208.8125,150.1406 208.8125,152.8594 L208.8125,153.9844 C208.8125,156.5625 210.9219,158.4531 213.8125,158.4531 C215.0313,158.4531 216.1875,158.1563 216.9375,157.6094 C217.5156,157.2031 217.8438,156.75 217.8438,156.3594 C217.8438,155.9063 217.4531,155.5156 216.9844,155.5156 C216.7656,155.5156 216.5625,155.5938 216.375,155.7813 C215.9219,156.2656 215.9219,156.2656 215.7344,156.3594 C215.3125,156.625 214.625,156.75 213.8594,156.75 C211.8125,156.75 210.5156,155.6563 210.5156,153.9531 L210.5156,152.8594 C210.5156,151.0781 211.7656,149.7656 213.5,149.7656 C214.0781,149.7656 214.6875,149.9219 215.1563,150.1719 C215.6406,150.4531 215.8125,150.6719 215.9063,151.0781 C215.9688,151.4844 216,151.6094 216.1406,151.7344 C216.2813,151.875 216.5156,151.9844 216.7344,151.9844 C217,151.9844 217.2656,151.8438 217.4375,151.625 C217.5469,151.4688 217.5781,151.2813 217.5781,150.8594 L217.5781,149.4375 C217.5781,149 217.5625,148.875 217.4688,148.7188 C217.3125,148.4531 217.0313,148.3125 216.7344,148.3125 C216.4375,148.3125 216.2344,148.4063 216.0156,148.7188 L215.8438,148.6406 Z " fill="#000000"/><text fill="#000000" font-family="sans-serif" font-size="12" font-style="italic" lengthAdjust="spacing" textLength="72" x="259" y="150.1387">«decorator»</text><text fill="#000000" font-family="sans-serif" font-size="12" lengthAdjust="spacing" textLength="135" x="227.5" y="164.1074">ObjectToBeDecorated</text><line style="stroke:#A80036;stroke-width:1.5;" x1="199.5" x2="364.5" y1="171.9375" y2="171.9375"/><line style="stroke:#A80036;stroke-width:1.5;" x1="199.5" x2="364.5" y1="179.9375" y2="179.9375"/><ellipse cx="209.5" cy="190.9375" fill="#84BE84" rx="3" ry="3" style="stroke:#038048;stroke-width:1.0;"/><text fill="#000000" font-family="sans-serif" font-size="11" lengthAdjust="spacing" textLength="97" x="218.5" y="194.1479">operation() : void</text><!--MD5=[904674b7671ab8d47bc62d2f5c6c0c61]
class ConcreteDecorator--><rect codeLine="13" fill="#FEFECE" filter="url(#f1kafhwo6vfcw5)" height="73.6094" id="ConcreteDecorator" style="stroke:#A80036;stroke-width:1.5;" width="176" x="194" y="261"/><ellipse cx="221.6" cy="277" fill="#ADD1B2" rx="11" ry="11" style="stroke:#A80036;stroke-width:1.0;"/><path d="M223.9438,272.6719 C223.0063,272.2344 222.4125,272.0938 221.5375,272.0938 C218.9125,272.0938 216.9125,274.1719 216.9125,276.8906 L216.9125,278.0156 C216.9125,280.5938 219.0219,282.4844 221.9125,282.4844 C223.1313,282.4844 224.2875,282.1875 225.0375,281.6406 C225.6156,281.2344 225.9438,280.7813 225.9438,280.3906 C225.9438,279.9375 225.5531,279.5469 225.0844,279.5469 C224.8656,279.5469 224.6625,279.625 224.475,279.8125 C224.0219,280.2969 224.0219,280.2969 223.8344,280.3906 C223.4125,280.6563 222.725,280.7813 221.9594,280.7813 C219.9125,280.7813 218.6156,279.6875 218.6156,277.9844 L218.6156,276.8906 C218.6156,275.1094 219.8656,273.7969 221.6,273.7969 C222.1781,273.7969 222.7875,273.9531 223.2563,274.2031 C223.7406,274.4844 223.9125,274.7031 224.0063,275.1094 C224.0688,275.5156 224.1,275.6406 224.2406,275.7656 C224.3813,275.9063 224.6156,276.0156 224.8344,276.0156 C225.1,276.0156 225.3656,275.875 225.5375,275.6563 C225.6469,275.5 225.6781,275.3125 225.6781,274.8906 L225.6781,273.4688 C225.6781,273.0313 225.6625,272.9063 225.5688,272.75 C225.4125,272.4844 225.1313,272.3438 224.8344,272.3438 C224.5375,272.3438 224.3344,272.4375 224.1156,272.75 L223.9438,272.6719 Z " fill="#000000"/><text fill="#000000" font-family="sans-serif" font-size="12" lengthAdjust="spacing" textLength="116" x="238.4" y="281.1543">ConcreteDecorator</text><line style="stroke:#A80036;stroke-width:1.5;" x1="195" x2="369" y1="293" y2="293"/><line style="stroke:#A80036;stroke-width:1.5;" x1="195" x2="369" y1="301" y2="301"/><ellipse cx="205" cy="312" fill="#84BE84" rx="3" ry="3" style="stroke:#038048;stroke-width:1.0;"/><text fill="#000000" font-family="sans-serif" font-size="11" lengthAdjust="spacing" textLength="97" x="214" y="315.2104">operation() : void</text><ellipse cx="205" cy="324.8047" fill="#84BE84" rx="3" ry="3" style="stroke:#038048;stroke-width:1.0;"/><text fill="#000000" font-family="sans-serif" font-size="11" lengthAdjust="spacing" textLength="150" x="214" y="328.0151">additionalOperation(): void</text><!--MD5=[4758994e2c5b8c480b5268b073beb8b0]
reverse link Component to ConcreteComponent--><path d="M213.545,84.936 C186.475,102.112 156.056,121.414 131.607,136.927 " fill="none" id="Component-backto-ConcreteComponent" style="stroke:#A80036;stroke-width:1.0;"/><polygon fill="none" points="210.117,78.821,230.755,74.016,217.618,90.642,210.117,78.821" style="stroke:#A80036;stroke-width:1.0;"/><!--MD5=[c847244bf951ade0cfdd66cea9cf34b8]
reverse link Component to ObjectToBeDecorated--><path d="M269.39,94.204 C269.004,107.607 269.416,121.626 270.628,133.713 " fill="none" id="Component-backto-ObjectToBeDecorated" style="stroke:#A80036;stroke-width:1.0;"/><polygon fill="none" points="262.418,93.539,270.656,74.016,276.391,94.415,262.418,93.539" style="stroke:#A80036;stroke-width:1.0;"/><!--MD5=[aa516a27bdd0f0ab842fd379c0d1b47e]
reverse link ObjectToBeDecorated to Component--><path codeLine="18" d="M295.067,120.608 C295.891,105.148 295.539,88.227 294.012,74.016 " fill="none" id="ObjectToBeDecorated-backto-Component" style="stroke:#A80036;stroke-width:1.0;"/><polygon fill="#FFFFFF" points="294.041,133.713,298.4976,128.0439,294.9786,121.7497,290.522,127.4188,294.041,133.713" style="stroke:#A80036;stroke-width:1.0;"/><!--MD5=[74205992d4af352e55baa7c75176daac]
reverse link ObjectToBeDecorated to ConcreteDecorator--><path d="M282,221.681 C282,234.805 282,248.5644 282,260.6789 " fill="none" id="ObjectToBeDecorated-backto-ConcreteDecorator" style="stroke:#A80036;stroke-width:1.0;"/><polygon fill="none" points="275,221.258,282,201.258,289,221.258,275,221.258" style="stroke:#A80036;stroke-width:1.0;"/><!--MD5=[885c346dc0eceb5ed177c577b446521c]
@startuml
interface Component <<interface>> {
    + operation() : void
}

class ConcreteComponent extends Component {
    + operation() : void
}

class ObjectToBeDecorated <<decorator>> extends Component {
    + operation() : void
}

class ConcreteDecorator extends ObjectToBeDecorated{
    + operation() : void
    + additionalOperation(): void
}

ObjectToBeDecorated o- - Component
@enduml

PlantUML version 1.2021.7(Sun May 23 12:40:07 UTC 2021)
(GPL source distribution)
Java Runtime: Java(TM) SE Runtime Environment
JVM: Java HotSpot(TM) 64-Bit Server VM
Default Encoding: UTF-8
Language: en
Country: US
--></g></svg>