<?xml version="1.0" encoding="UTF-8" standalone="no"?><svg xmlns="http://www.w3.org/2000/svg" xmlns:xlink="http://www.w3.org/1999/xlink" contentScriptType="application/ecmascript" contentStyleType="text/css" height="200px" preserveAspectRatio="none" style="width:721px;height:200px;background:#FFFFFF;" version="1.1" viewBox="0 0 721 200" width="721px" zoomAndPan="magnify"><defs><filter height="300%" id="f18b3ihgxald82" width="300%" x="-1" y="-1"><feGaussianBlur result="blurOut" stdDeviation="2.0"/><feColorMatrix in="blurOut" result="blurOut2" type="matrix" values="0 0 0 0 0 0 0 0 0 0 0 0 0 0 0 0 0 0 .4 0"/><feOffset dx="4.0" dy="4.0" in="blurOut2" result="blurOut3"/><feBlend in="SourceGraphic" in2="blurOut3" mode="normal"/></filter></defs><g><!--MD5=[b3b57622c9f990c5746d624077ea32c7]
class IProduct--><rect codeLine="1" fill="#FEFECE" filter="url(#f18b3ihgxald82)" height="66.7422" id="IProduct" style="stroke:#A80036;stroke-width:1.5;" width="95" x="302" y="7"/><ellipse cx="317" cy="25.9688" fill="#B4A7E5" rx="11" ry="11" style="stroke:#A80036;stroke-width:1.0;"/><path d="M317.9531,22.75 L319.6719,22.75 C320.0625,22.75 320.25,22.7188 320.375,22.6406 C320.6406,22.4844 320.7813,22.2031 320.7813,21.9063 C320.7813,21.6406 320.6719,21.375 320.4375,21.2031 C320.2656,21.0938 320.125,21.0625 319.6719,21.0625 L314.5313,21.0625 C314.0938,21.0625 313.9688,21.0781 313.8125,21.1719 C313.5625,21.3281 313.4063,21.625 313.4063,21.9063 C313.4063,22.1875 313.5469,22.4375 313.7656,22.6094 C313.9219,22.7188 314.1094,22.75 314.5313,22.75 L316.25,22.75 L316.25,29.2656 L314.5313,29.2656 C314.0938,29.2656 313.9688,29.2813 313.8125,29.3906 C313.5625,29.5469 313.4063,29.8281 313.4063,30.125 C313.4063,30.375 313.5469,30.6406 313.7656,30.7969 C313.9219,30.9219 314.125,30.9688 314.5313,30.9688 L319.6719,30.9688 C320.4219,30.9688 320.7813,30.6875 320.7813,30.125 C320.7813,29.8438 320.6719,29.5938 320.4375,29.4219 C320.2656,29.2969 320.125,29.2656 319.6719,29.2656 L317.9531,29.2656 L317.9531,22.75 Z " fill="#000000"/><text fill="#000000" font-family="sans-serif" font-size="12" font-style="italic" lengthAdjust="spacing" textLength="67" x="329" y="23.1387">«interface»</text><text fill="#000000" font-family="sans-serif" font-size="12" font-style="italic" lengthAdjust="spacing" textLength="51" x="337" y="37.1074">IProduct</text><line style="stroke:#A80036;stroke-width:1.5;" x1="303" x2="396" y1="44.9375" y2="44.9375"/><line style="stroke:#A80036;stroke-width:1.5;" x1="303" x2="396" y1="52.9375" y2="52.9375"/><ellipse cx="313" cy="63.9375" fill="#84BE84" rx="3" ry="3" style="stroke:#038048;stroke-width:1.0;"/><text fill="#000000" font-family="sans-serif" font-size="11" lengthAdjust="spacing" textLength="62" x="322" y="67.1479">operation()</text><!--MD5=[72136138052d025cffdce3c22fbd185f]
class Product--><rect codeLine="5" fill="#FEFECE" filter="url(#f18b3ihgxald82)" height="66.7422" id="Product" style="stroke:#A80036;stroke-width:1.5;" width="95" x="7" y="7"/><ellipse cx="22" cy="25.9688" fill="#ADD1B2" rx="11" ry="11" style="stroke:#A80036;stroke-width:1.0;"/><path d="M24.3438,21.6406 C23.4063,21.2031 22.8125,21.0625 21.9375,21.0625 C19.3125,21.0625 17.3125,23.1406 17.3125,25.8594 L17.3125,26.9844 C17.3125,29.5625 19.4219,31.4531 22.3125,31.4531 C23.5313,31.4531 24.6875,31.1563 25.4375,30.6094 C26.0156,30.2031 26.3438,29.75 26.3438,29.3594 C26.3438,28.9063 25.9531,28.5156 25.4844,28.5156 C25.2656,28.5156 25.0625,28.5938 24.875,28.7813 C24.4219,29.2656 24.4219,29.2656 24.2344,29.3594 C23.8125,29.625 23.125,29.75 22.3594,29.75 C20.3125,29.75 19.0156,28.6563 19.0156,26.9531 L19.0156,25.8594 C19.0156,24.0781 20.2656,22.7656 22,22.7656 C22.5781,22.7656 23.1875,22.9219 23.6563,23.1719 C24.1406,23.4531 24.3125,23.6719 24.4063,24.0781 C24.4688,24.4844 24.5,24.6094 24.6406,24.7344 C24.7813,24.875 25.0156,24.9844 25.2344,24.9844 C25.5,24.9844 25.7656,24.8438 25.9375,24.625 C26.0469,24.4688 26.0781,24.2813 26.0781,23.8594 L26.0781,22.4375 C26.0781,22 26.0625,21.875 25.9688,21.7188 C25.8125,21.4531 25.5313,21.3125 25.2344,21.3125 C24.9375,21.3125 24.7344,21.4063 24.5156,21.7188 L24.3438,21.6406 Z " fill="#000000"/><text fill="#000000" font-family="sans-serif" font-size="12" font-style="italic" lengthAdjust="spacing" textLength="67" x="34" y="23.1387">«concrete»</text><text fill="#000000" font-family="sans-serif" font-size="12" lengthAdjust="spacing" textLength="45" x="45" y="37.1074">Product</text><line style="stroke:#A80036;stroke-width:1.5;" x1="8" x2="101" y1="44.9375" y2="44.9375"/><line style="stroke:#A80036;stroke-width:1.5;" x1="8" x2="101" y1="52.9375" y2="52.9375"/><ellipse cx="18" cy="63.9375" fill="#84BE84" rx="3" ry="3" style="stroke:#038048;stroke-width:1.0;"/><text fill="#000000" font-family="sans-serif" font-size="11" lengthAdjust="spacing" textLength="62" x="27" y="67.1479">operation()</text><!--MD5=[18fe620d353c7278b252292b5533264b]
class ProductFactory--><rect codeLine="9" fill="#FEFECE" filter="url(#f18b3ihgxald82)" height="66.7422" id="ProductFactory" style="stroke:#A80036;stroke-width:1.5;" width="122" x="585" y="7"/><ellipse cx="600" cy="25.9688" fill="#ADD1B2" rx="11" ry="11" style="stroke:#A80036;stroke-width:1.0;"/><path d="M602.3438,21.6406 C601.4063,21.2031 600.8125,21.0625 599.9375,21.0625 C597.3125,21.0625 595.3125,23.1406 595.3125,25.8594 L595.3125,26.9844 C595.3125,29.5625 597.4219,31.4531 600.3125,31.4531 C601.5313,31.4531 602.6875,31.1563 603.4375,30.6094 C604.0156,30.2031 604.3438,29.75 604.3438,29.3594 C604.3438,28.9063 603.9531,28.5156 603.4844,28.5156 C603.2656,28.5156 603.0625,28.5938 602.875,28.7813 C602.4219,29.2656 602.4219,29.2656 602.2344,29.3594 C601.8125,29.625 601.125,29.75 600.3594,29.75 C598.3125,29.75 597.0156,28.6563 597.0156,26.9531 L597.0156,25.8594 C597.0156,24.0781 598.2656,22.7656 600,22.7656 C600.5781,22.7656 601.1875,22.9219 601.6563,23.1719 C602.1406,23.4531 602.3125,23.6719 602.4063,24.0781 C602.4688,24.4844 602.5,24.6094 602.6406,24.7344 C602.7813,24.875 603.0156,24.9844 603.2344,24.9844 C603.5,24.9844 603.7656,24.8438 603.9375,24.625 C604.0469,24.4688 604.0781,24.2813 604.0781,23.8594 L604.0781,22.4375 C604.0781,22 604.0625,21.875 603.9688,21.7188 C603.8125,21.4531 603.5313,21.3125 603.2344,21.3125 C602.9375,21.3125 602.7344,21.4063 602.5156,21.7188 L602.3438,21.6406 Z " fill="#000000"/><text fill="#000000" font-family="sans-serif" font-size="12" font-style="italic" lengthAdjust="spacing" textLength="56" x="631" y="23.1387">«factory»</text><text fill="#000000" font-family="sans-serif" font-size="12" lengthAdjust="spacing" textLength="90" x="614" y="37.1074">ProductFactory</text><line style="stroke:#A80036;stroke-width:1.5;" x1="586" x2="706" y1="44.9375" y2="44.9375"/><line style="stroke:#A80036;stroke-width:1.5;" x1="586" x2="706" y1="52.9375" y2="52.9375"/><ellipse cx="596" cy="63.9375" fill="#84BE84" rx="3" ry="3" style="stroke:#038048;stroke-width:1.0;"/><text fill="#000000" font-family="sans-serif" font-size="11" lengthAdjust="spacing" textLength="89" x="605" y="67.1479">factoryMethod()</text><!--MD5=[ed6624c6556d5e7b1bd23032162d20b7]
class Client--><rect codeLine="13" fill="#FEFECE" filter="url(#f18b3ihgxald82)" height="60.8047" id="Client" style="stroke:#A80036;stroke-width:1.5;" width="65" x="613.5" y="126"/><ellipse cx="628.5" cy="142" fill="#ADD1B2" rx="11" ry="11" style="stroke:#A80036;stroke-width:1.0;"/><path d="M630.8438,137.6719 C629.9063,137.2344 629.3125,137.0938 628.4375,137.0938 C625.8125,137.0938 623.8125,139.1719 623.8125,141.8906 L623.8125,143.0156 C623.8125,145.5938 625.9219,147.4844 628.8125,147.4844 C630.0313,147.4844 631.1875,147.1875 631.9375,146.6406 C632.5156,146.2344 632.8438,145.7813 632.8438,145.3906 C632.8438,144.9375 632.4531,144.5469 631.9844,144.5469 C631.7656,144.5469 631.5625,144.625 631.375,144.8125 C630.9219,145.2969 630.9219,145.2969 630.7344,145.3906 C630.3125,145.6563 629.625,145.7813 628.8594,145.7813 C626.8125,145.7813 625.5156,144.6875 625.5156,142.9844 L625.5156,141.8906 C625.5156,140.1094 626.7656,138.7969 628.5,138.7969 C629.0781,138.7969 629.6875,138.9531 630.1563,139.2031 C630.6406,139.4844 630.8125,139.7031 630.9063,140.1094 C630.9688,140.5156 631,140.6406 631.1406,140.7656 C631.2813,140.9063 631.5156,141.0156 631.7344,141.0156 C632,141.0156 632.2656,140.875 632.4375,140.6563 C632.5469,140.5 632.5781,140.3125 632.5781,139.8906 L632.5781,138.4688 C632.5781,138.0313 632.5625,137.9063 632.4688,137.75 C632.3125,137.4844 632.0313,137.3438 631.7344,137.3438 C631.4375,137.3438 631.2344,137.4375 631.0156,137.75 L630.8438,137.6719 Z " fill="#000000"/><text fill="#000000" font-family="sans-serif" font-size="12" lengthAdjust="spacing" textLength="33" x="642.5" y="146.1543">Client</text><line style="stroke:#A80036;stroke-width:1.5;" x1="614.5" x2="677.5" y1="158" y2="158"/><line style="stroke:#A80036;stroke-width:1.5;" x1="614.5" x2="677.5" y1="166" y2="166"/><ellipse cx="624.5" cy="177" fill="#84BE84" rx="3" ry="3" style="stroke:#038048;stroke-width:1.0;"/><text fill="#000000" font-family="sans-serif" font-size="11" lengthAdjust="spacing" textLength="36" x="633.5" y="180.2104">main()</text><!--MD5=[6ca9c89b00883194333875f3ebc1eb57]
link Product to IProduct--><path codeLine="19" d="M102.2507,40.5 C150.71,40.5 226.9,40.5 281.701,40.5 " fill="none" id="Product-to-IProduct" style="stroke:#A80036;stroke-width:1.0;stroke-dasharray:7.0,7.0;"/><polygon fill="none" points="281.916,33.5,301.916,40.5,281.916,47.5,281.916,33.5" style="stroke:#A80036;stroke-width:1.0;"/><text fill="#000000" font-family="sans-serif" font-size="13" lengthAdjust="spacing" textLength="76" x="164" y="36.5669">implements</text><!--MD5=[e71a864bbf75bea28c574072c33912da]
link IProduct to ProductFactory--><path codeLine="20" d="M397.164,40.5 C444.063,40.5 517.037,40.5 571.675,40.5 " fill="none" id="IProduct-to-ProductFactory" style="stroke:#A80036;stroke-width:1.0;"/><polygon fill="#A80036" points="584.792,40.5,578.792,36.5,572.792,40.5,578.792,44.5,584.792,40.5" style="stroke:#A80036;stroke-width:1.0;"/><text fill="#000000" font-family="sans-serif" font-size="13" lengthAdjust="spacing" textLength="64" x="459" y="36.5669">«creates»</text><!--MD5=[f16f66e7930742401e8864fca32303da]
reverse link ProductFactory to Client--><path codeLine="21" d="M646,79.324 C646,94.4279 646,111.4871 646,125.7187 " fill="none" id="ProductFactory-backto-Client" style="stroke:#A80036;stroke-width:1.0;"/><polygon fill="#A80036" points="646,74.283,642,83.283,646,79.283,650,83.283,646,74.283" style="stroke:#A80036;stroke-width:1.0;"/><text fill="#000000" font-family="sans-serif" font-size="13" lengthAdjust="spacing" textLength="45" x="612" y="104.5669">«asks»</text><!--MD5=[543d759a79dd80aa7cf57ff945744983]
@startuml
interface IProduct <<interface>> {
    + operation()
}

class Product <<concrete>> {
    + operation()
}

class ProductFactory <<factory>> {
    + factoryMethod()
}

class Client {
    + main()
}

left to right direction

Product ...|> IProduct : implements
ProductFactory *- -up- IProduct : <<creates>>
Client -left-> ProductFactory : <<asks>>
@enduml

PlantUML version 1.2021.7(Sun May 23 12:40:07 UTC 2021)
(GPL source distribution)
Java Runtime: Java(TM) SE Runtime Environment
JVM: Java HotSpot(TM) 64-Bit Server VM
Default Encoding: UTF-8
Language: en
Country: US
--></g></svg>