<?xml version="1.0" encoding="UTF-8" standalone="no"?><svg xmlns="http://www.w3.org/2000/svg" xmlns:xlink="http://www.w3.org/1999/xlink" contentScriptType="application/ecmascript" contentStyleType="text/css" height="287px" preserveAspectRatio="none" style="width:971px;height:287px;background:#FFFFFF;" version="1.1" viewBox="0 0 971 287" width="971px" zoomAndPan="magnify"><defs><filter height="300%" id="fz0lmxkpdpdx1" width="300%" x="-1" y="-1"><feGaussianBlur result="blurOut" stdDeviation="2.0"/><feColorMatrix in="blurOut" result="blurOut2" type="matrix" values="0 0 0 0 0 0 0 0 0 0 0 0 0 0 0 0 0 0 .4 0"/><feOffset dx="4.0" dy="4.0" in="blurOut2" result="blurOut3"/><feBlend in="SourceGraphic" in2="blurOut3" mode="normal"/></filter></defs><g><ellipse cx="468.8973" cy="141.1795" fill="#FEFECE" filter="url(#fz0lmxkpdpdx1)" rx="118.8973" ry="26.1795" style="stroke:#A80036;stroke-width:1.5;"/><text fill="#000000" font-family="sans-serif" font-size="14" lengthAdjust="spacing" textLength="205" x="366.3973" y="144.0261">Design Patterns Functionally</text><ellipse cx="716.0935" cy="30.3187" fill="#FEFECE" filter="url(#fz0lmxkpdpdx1)" rx="109.5935" ry="24.3187" style="stroke:#A80036;stroke-width:1.5;"/><text fill="#000000" font-family="sans-serif" font-size="14" lengthAdjust="spacing" textLength="185" x="623.5935" y="33.1654">Command Design Pattern</text><ellipse cx="468.7923" cy="30.2585" fill="#FEFECE" filter="url(#fz0lmxkpdpdx1)" rx="101.7923" ry="22.7585" style="stroke:#A80036;stroke-width:1.5;"/><text fill="#000000" font-family="sans-serif" font-size="14" lengthAdjust="spacing" textLength="168" x="384.7923" y="33.1051">Iterator Design Pattern</text><ellipse cx="230.8822" cy="30.5764" fill="#FEFECE" filter="url(#fz0lmxkpdpdx1)" rx="100.8822" ry="22.5764" style="stroke:#A80036;stroke-width:1.5;"/><text fill="#000000" font-family="sans-serif" font-size="14" lengthAdjust="spacing" textLength="166" x="147.8822" y="33.4231">Factory Design Pattern</text><ellipse cx="105.0673" cy="251.7135" fill="#FEFECE" filter="url(#fz0lmxkpdpdx1)" rx="99.0673" ry="22.2135" style="stroke:#A80036;stroke-width:1.5;"/><text fill="#000000" font-family="sans-serif" font-size="14" lengthAdjust="spacing" textLength="162" x="24.0673" y="254.5601">Builder Design Pattern</text><ellipse cx="343.9911" cy="251.3982" fill="#FEFECE" filter="url(#fz0lmxkpdpdx1)" rx="104.9911" ry="23.3982" style="stroke:#A80036;stroke-width:1.5;"/><text fill="#000000" font-family="sans-serif" font-size="14" lengthAdjust="spacing" textLength="175" x="256.4911" y="254.2449">Strategy Design Pattern</text><ellipse cx="594.0935" cy="251.3187" fill="#FEFECE" filter="url(#fz0lmxkpdpdx1)" rx="109.5935" ry="24.3187" style="stroke:#A80036;stroke-width:1.5;"/><text fill="#000000" font-family="sans-serif" font-size="14" lengthAdjust="spacing" textLength="185" x="501.5935" y="254.1654">Decorator Design Pattern</text><ellipse cx="849.0557" cy="251.4111" fill="#FEFECE" filter="url(#fz0lmxkpdpdx1)" rx="110.0557" ry="24.4111" style="stroke:#A80036;stroke-width:1.5;"/><text fill="#000000" font-family="sans-serif" font-size="14" lengthAdjust="spacing" textLength="186" x="756.0557" y="254.2578">Creating fluent interfaces</text><!--MD5=[70eec3ca03baabfb42e3192f2cd90f55]
reverse link command to fn--><path d="M663.272,54.662 C621.005,73.229 562.042,99.129 520.187,117.515 " fill="none" id="command-backto-fn" style="stroke:#A80036;stroke-width:1.0;"/><polygon fill="#A80036" points="668.083,52.549,658.2342,52.5067,663.5053,54.5601,661.4519,59.8311,668.083,52.549" style="stroke:#A80036;stroke-width:1.0;"/><!--MD5=[ddfc1e13ff5a41784c2ef079b1158925]
reverse link iterator to fn--><path d="M469,58.882 C469,76.052 469,98.027 469,114.772 " fill="none" id="iterator-backto-fn" style="stroke:#A80036;stroke-width:1.0;"/><polygon fill="#A80036" points="469,53.718,465,62.718,469,58.718,473,62.718,469,53.718" style="stroke:#A80036;stroke-width:1.0;"/><!--MD5=[e23a91b2633d9a5f3309c5ed18590a8b]
reverse link factory to fn--><path d="M278.7,53.246 C319.416,71.807 377.771,98.41 419.105,117.254 " fill="none" id="factory-backto-fn" style="stroke:#A80036;stroke-width:1.0;"/><polygon fill="#A80036" points="273.825,51.023,280.354,58.3967,278.3743,53.0976,283.6734,51.1179,273.825,51.023" style="stroke:#A80036;stroke-width:1.0;"/><!--MD5=[ffab1831960d104bfd6dfb468d5dc6dc]
link fn to builder--><path d="M400.534,162.408 C333.396,182.4204 231.938,212.6627 167.085,231.9938 " fill="none" id="fn-to-builder" style="stroke:#A80036;stroke-width:1.0;"/><polygon fill="#A80036" points="162.092,233.4821,171.8597,234.7439,166.8836,232.0535,169.574,227.0774,162.092,233.4821" style="stroke:#A80036;stroke-width:1.0;"/><!--MD5=[e9ec133e7116f584f56968dd61318796]
link fn to strategy--><path d="M440.948,166.35 C420.838,183.8047 393.809,207.2657 373.399,224.9813 " fill="none" id="fn-to-strategy" style="stroke:#A80036;stroke-width:1.0;"/><polygon fill="#A80036" points="369.41,228.4443,378.8289,225.5661,373.1862,225.167,373.5853,219.5243,369.41,228.4443" style="stroke:#A80036;stroke-width:1.0;"/><!--MD5=[9f2e5351cf47e8077f5f13b1eae3107e]
link fn to decorator--><path d="M497.052,166.35 C516.757,183.4532 543.105,206.3234 563.36,223.9043 " fill="none" id="fn-to-decorator" style="stroke:#A80036;stroke-width:1.0;"/><polygon fill="#A80036" points="567.326,227.3467,563.1507,218.4267,563.5498,224.0694,557.9071,224.4685,567.326,227.3467" style="stroke:#A80036;stroke-width:1.0;"/><!--MD5=[f0a721caf1e0cd69e22d70fe290bfd32]
link fn to interfaces--><path d="M539.141,162.027 C607.308,181.4907 710.267,210.8881 778.542,230.3825 " fill="none" id="fn-to-interfaces" style="stroke:#A80036;stroke-width:1.0;"/><polygon fill="#A80036" points="783.397,231.7687,775.8412,225.4513,778.5892,230.3958,773.6446,233.1438,783.397,231.7687" style="stroke:#A80036;stroke-width:1.0;"/><!--MD5=[96d30e1a343ff49a229335c85314ca28]
@startuml
(Design Patterns Functionally) as fn
(Command Design Pattern) as command
(Iterator Design Pattern) as iterator
(Factory Design Pattern) as factory
(Builder Design Pattern) as builder
(Strategy Design Pattern) as strategy
(Decorator Design Pattern) as decorator
(Creating fluent interfaces) as interfaces

fn -up-> command 
fn -up-> iterator
fn -up-> factory
fn -down-> builder 
fn -down-> strategy 
fn -down-> decorator 
fn -down-> interfaces
@enduml

PlantUML version 1.2021.7(Sun May 23 12:40:07 UTC 2021)
(GPL source distribution)
Java Runtime: Java(TM) SE Runtime Environment
JVM: Java HotSpot(TM) 64-Bit Server VM
Default Encoding: UTF-8
Language: en
Country: US
--></g></svg>