<?xml version="1.0" encoding="UTF-8" standalone="no"?><svg xmlns="http://www.w3.org/2000/svg" xmlns:xlink="http://www.w3.org/1999/xlink" contentScriptType="application/ecmascript" contentStyleType="text/css" height="429px" preserveAspectRatio="none" style="width:320px;height:429px;background:#FFFFFF;" version="1.1" viewBox="0 0 320 429" width="320px" zoomAndPan="magnify"><defs><filter height="300%" id="f6rxe1hs1azzw" width="300%" x="-1" y="-1"><feGaussianBlur result="blurOut" stdDeviation="2.0"/><feColorMatrix in="blurOut" result="blurOut2" type="matrix" values="0 0 0 0 0 0 0 0 0 0 0 0 0 0 0 0 0 0 .4 0"/><feOffset dx="4.0" dy="4.0" in="blurOut2" result="blurOut3"/><feBlend in="SourceGraphic" in2="blurOut3" mode="normal"/></filter></defs><g><!--MD5=[c160724f8e3bb89ca8141a12554ac2e3]
class Collection--><rect codeLine="1" fill="#FEFECE" filter="url(#f6rxe1hs1azzw)" height="60.8047" id="Collection" style="stroke:#A80036;stroke-width:1.5;" width="90" x="188.5" y="13.5"/><ellipse cx="203.5" cy="29.5" fill="#A9DCDF" rx="11" ry="11" style="stroke:#A80036;stroke-width:1.0;"/><path d="M205.5781,31.3125 L205.9688,32.2969 L205.5781,32.2969 C205.125,32.2969 205.0156,32.3125 204.8594,32.4219 C204.6094,32.5781 204.4531,32.8594 204.4531,33.1563 C204.4531,33.4219 204.5938,33.6719 204.8125,33.8281 C204.9531,33.9531 205.1563,34 205.5781,34 L207.9375,34 C208.2969,34 208.5156,33.9688 208.6563,33.875 C208.9063,33.7344 209.0625,33.4375 209.0625,33.1563 C209.0625,32.875 208.9219,32.625 208.7031,32.4688 C208.5313,32.3281 208.375,32.2969 207.9063,32.2969 L204.5156,24.0938 L200.8438,24.0938 C200.3906,24.0938 200.2656,24.1094 200.1094,24.2031 C199.8594,24.375 199.7031,24.6563 199.7031,24.9375 C199.7031,25.2188 199.8438,25.4688 200.0625,25.6406 C200.2344,25.75 200.4063,25.7813 200.8438,25.7813 L201.9219,25.7813 L199.2813,32.2969 C198.8594,32.2969 198.7031,32.3125 198.5469,32.4219 C198.2969,32.5781 198.1406,32.8594 198.1406,33.1563 C198.1406,33.7188 198.5156,34 199.2656,34 L201.5313,34 C201.8906,34 202.1094,33.9688 202.2344,33.875 C202.5,33.7344 202.6406,33.4375 202.6406,33.1563 C202.6406,32.875 202.5156,32.625 202.2969,32.4531 C202.125,32.3281 201.9844,32.2969 201.5313,32.2969 L201.1406,32.2969 L201.5313,31.3125 L205.5781,31.3125 Z M204.875,29.6094 L202.2031,29.6094 L203.5469,26.3438 L204.875,29.6094 Z " fill="#000000"/><text fill="#000000" font-family="sans-serif" font-size="12" font-style="italic" lengthAdjust="spacing" textLength="58" x="217.5" y="33.6543">Collection</text><line style="stroke:#A80036;stroke-width:1.5;" x1="189.5" x2="277.5" y1="45.5" y2="45.5"/><line style="stroke:#A80036;stroke-width:1.5;" x1="189.5" x2="277.5" y1="53.5" y2="53.5"/><ellipse cx="199.5" cy="64.5" fill="#84BE84" rx="3" ry="3" style="stroke:#038048;stroke-width:1.0;"/><text fill="#000000" font-family="sans-serif" font-size="11" lengthAdjust="spacing" textLength="49" x="208.5" y="67.7104">iterator()</text><!--MD5=[023ecf6702e3ca2ce47ae747eafb20f1]
class Iterator--><rect codeLine="4" fill="#FEFECE" filter="url(#f6rxe1hs1azzw)" height="73.6094" id="Iterator" style="stroke:#A80036;stroke-width:1.5;" width="81" x="7" y="7"/><ellipse cx="23.8" cy="23" fill="#A9DCDF" rx="11" ry="11" style="stroke:#A80036;stroke-width:1.0;"/><path d="M25.8781,24.8125 L26.2688,25.7969 L25.8781,25.7969 C25.425,25.7969 25.3156,25.8125 25.1594,25.9219 C24.9094,26.0781 24.7531,26.3594 24.7531,26.6563 C24.7531,26.9219 24.8938,27.1719 25.1125,27.3281 C25.2531,27.4531 25.4563,27.5 25.8781,27.5 L28.2375,27.5 C28.5969,27.5 28.8156,27.4688 28.9563,27.375 C29.2063,27.2344 29.3625,26.9375 29.3625,26.6563 C29.3625,26.375 29.2219,26.125 29.0031,25.9688 C28.8313,25.8281 28.675,25.7969 28.2063,25.7969 L24.8156,17.5938 L21.1438,17.5938 C20.6906,17.5938 20.5656,17.6094 20.4094,17.7031 C20.1594,17.875 20.0031,18.1563 20.0031,18.4375 C20.0031,18.7188 20.1438,18.9688 20.3625,19.1406 C20.5344,19.25 20.7063,19.2813 21.1438,19.2813 L22.2219,19.2813 L19.5813,25.7969 C19.1594,25.7969 19.0031,25.8125 18.8469,25.9219 C18.5969,26.0781 18.4406,26.3594 18.4406,26.6563 C18.4406,27.2188 18.8156,27.5 19.5656,27.5 L21.8313,27.5 C22.1906,27.5 22.4094,27.4688 22.5344,27.375 C22.8,27.2344 22.9406,26.9375 22.9406,26.6563 C22.9406,26.375 22.8156,26.125 22.5969,25.9531 C22.425,25.8281 22.2844,25.7969 21.8313,25.7969 L21.4406,25.7969 L21.8313,24.8125 L25.8781,24.8125 Z M25.175,23.1094 L22.5031,23.1094 L23.8469,19.8438 L25.175,23.1094 Z " fill="#000000"/><text fill="#000000" font-family="sans-serif" font-size="12" font-style="italic" lengthAdjust="spacing" textLength="45" x="38.2" y="27.1543">Iterator</text><line style="stroke:#A80036;stroke-width:1.5;" x1="8" x2="87" y1="39" y2="39"/><line style="stroke:#A80036;stroke-width:1.5;" x1="8" x2="87" y1="47" y2="47"/><ellipse cx="18" cy="58" fill="#84BE84" rx="3" ry="3" style="stroke:#038048;stroke-width:1.0;"/><text fill="#000000" font-family="sans-serif" font-size="11" lengthAdjust="spacing" textLength="34" x="27" y="61.2104">next()</text><ellipse cx="18" cy="70.8047" fill="#84BE84" rx="3" ry="3" style="stroke:#038048;stroke-width:1.0;"/><text fill="#000000" font-family="sans-serif" font-size="11" lengthAdjust="spacing" textLength="55" x="27" y="74.0151">hasNext()</text><!--MD5=[947dc2c0bf1f88a185d7555eeeb47c29]
class ConcreteCollection--><rect codeLine="9" fill="#FEFECE" filter="url(#f6rxe1hs1azzw)" height="60.8047" id="ConcreteCollection" style="stroke:#A80036;stroke-width:1.5;" width="146" x="160.5" y="142"/><ellipse cx="175.5" cy="158" fill="#ADD1B2" rx="11" ry="11" style="stroke:#A80036;stroke-width:1.0;"/><path d="M177.8438,153.6719 C176.9063,153.2344 176.3125,153.0938 175.4375,153.0938 C172.8125,153.0938 170.8125,155.1719 170.8125,157.8906 L170.8125,159.0156 C170.8125,161.5938 172.9219,163.4844 175.8125,163.4844 C177.0313,163.4844 178.1875,163.1875 178.9375,162.6406 C179.5156,162.2344 179.8438,161.7813 179.8438,161.3906 C179.8438,160.9375 179.4531,160.5469 178.9844,160.5469 C178.7656,160.5469 178.5625,160.625 178.375,160.8125 C177.9219,161.2969 177.9219,161.2969 177.7344,161.3906 C177.3125,161.6563 176.625,161.7813 175.8594,161.7813 C173.8125,161.7813 172.5156,160.6875 172.5156,158.9844 L172.5156,157.8906 C172.5156,156.1094 173.7656,154.7969 175.5,154.7969 C176.0781,154.7969 176.6875,154.9531 177.1563,155.2031 C177.6406,155.4844 177.8125,155.7031 177.9063,156.1094 C177.9688,156.5156 178,156.6406 178.1406,156.7656 C178.2813,156.9063 178.5156,157.0156 178.7344,157.0156 C179,157.0156 179.2656,156.875 179.4375,156.6563 C179.5469,156.5 179.5781,156.3125 179.5781,155.8906 L179.5781,154.4688 C179.5781,154.0313 179.5625,153.9063 179.4688,153.75 C179.3125,153.4844 179.0313,153.3438 178.7344,153.3438 C178.4375,153.3438 178.2344,153.4375 178.0156,153.75 L177.8438,153.6719 Z " fill="#000000"/><text fill="#000000" font-family="sans-serif" font-size="12" lengthAdjust="spacing" textLength="114" x="189.5" y="162.1543">ConcreteCollection</text><line style="stroke:#A80036;stroke-width:1.5;" x1="161.5" x2="305.5" y1="174" y2="174"/><line style="stroke:#A80036;stroke-width:1.5;" x1="161.5" x2="305.5" y1="182" y2="182"/><ellipse cx="171.5" cy="193" fill="#84BE84" rx="3" ry="3" style="stroke:#038048;stroke-width:1.0;"/><text fill="#000000" font-family="sans-serif" font-size="11" lengthAdjust="spacing" textLength="49" x="180.5" y="196.2104">iterator()</text><!--MD5=[4a3c11898c703d44c2eccf691605a75f]
class ConcreteIterator--><rect codeLine="13" fill="#FEFECE" filter="url(#f6rxe1hs1azzw)" height="73.6094" id="ConcreteIterator" style="stroke:#A80036;stroke-width:1.5;" width="131" x="70" y="342"/><ellipse cx="85" cy="358" fill="#ADD1B2" rx="11" ry="11" style="stroke:#A80036;stroke-width:1.0;"/><path d="M87.3438,353.6719 C86.4063,353.2344 85.8125,353.0938 84.9375,353.0938 C82.3125,353.0938 80.3125,355.1719 80.3125,357.8906 L80.3125,359.0156 C80.3125,361.5938 82.4219,363.4844 85.3125,363.4844 C86.5313,363.4844 87.6875,363.1875 88.4375,362.6406 C89.0156,362.2344 89.3438,361.7813 89.3438,361.3906 C89.3438,360.9375 88.9531,360.5469 88.4844,360.5469 C88.2656,360.5469 88.0625,360.625 87.875,360.8125 C87.4219,361.2969 87.4219,361.2969 87.2344,361.3906 C86.8125,361.6563 86.125,361.7813 85.3594,361.7813 C83.3125,361.7813 82.0156,360.6875 82.0156,358.9844 L82.0156,357.8906 C82.0156,356.1094 83.2656,354.7969 85,354.7969 C85.5781,354.7969 86.1875,354.9531 86.6563,355.2031 C87.1406,355.4844 87.3125,355.7031 87.4063,356.1094 C87.4688,356.5156 87.5,356.6406 87.6406,356.7656 C87.7813,356.9063 88.0156,357.0156 88.2344,357.0156 C88.5,357.0156 88.7656,356.875 88.9375,356.6563 C89.0469,356.5 89.0781,356.3125 89.0781,355.8906 L89.0781,354.4688 C89.0781,354.0313 89.0625,353.9063 88.9688,353.75 C88.8125,353.4844 88.5313,353.3438 88.2344,353.3438 C87.9375,353.3438 87.7344,353.4375 87.5156,353.75 L87.3438,353.6719 Z " fill="#000000"/><text fill="#000000" font-family="sans-serif" font-size="12" lengthAdjust="spacing" textLength="99" x="99" y="362.1543">ConcreteIterator</text><line style="stroke:#A80036;stroke-width:1.5;" x1="71" x2="200" y1="374" y2="374"/><line style="stroke:#A80036;stroke-width:1.5;" x1="71" x2="200" y1="382" y2="382"/><ellipse cx="81" cy="393" fill="#84BE84" rx="3" ry="3" style="stroke:#038048;stroke-width:1.0;"/><text fill="#000000" font-family="sans-serif" font-size="11" lengthAdjust="spacing" textLength="34" x="90" y="396.2104">next()</text><ellipse cx="81" cy="405.8047" fill="#84BE84" rx="3" ry="3" style="stroke:#038048;stroke-width:1.0;"/><text fill="#000000" font-family="sans-serif" font-size="11" lengthAdjust="spacing" textLength="55" x="90" y="409.0151">hasNext()</text><!--MD5=[cfcc7553adf36f5c28b0cdfeb061b7a0]
reverse link Collection to ConcreteCollection--><path d="M233.5,94.774 C233.5,110.605 233.5,127.617 233.5,141.589 " fill="none" id="Collection-backto-ConcreteCollection" style="stroke:#A80036;stroke-width:1.0;"/><polygon fill="none" points="226.5,94.659,233.5,74.659,240.5,94.659,226.5,94.659" style="stroke:#A80036;stroke-width:1.0;"/><!--MD5=[08005fad78b25d943eac0df10e57518e]
reverse link Iterator to ConcreteIterator--><path d="M62.2925,100.976 C80.4153,169.555 110.594,283.753 125.927,341.774 " fill="none" id="Iterator-backto-ConcreteIterator" style="stroke:#A80036;stroke-width:1.0;"/><polygon fill="none" points="55.4273,102.395,57.0851,81.271,68.9627,98.818,55.4273,102.395" style="stroke:#A80036;stroke-width:1.0;"/><!--MD5=[4093754b87c93874560b2d4a07e91987]
reverse link Iterator to Collection--><path codeLine="18" d="M93.6095,44 C122.475,44 159.502,44 188.211,44 " fill="none" id="Iterator-backto-Collection" style="stroke:#A80036;stroke-width:1.0;stroke-dasharray:7.0,7.0;"/><polygon fill="#A80036" points="88.3185,44,97.3185,48,93.3185,44,97.3185,40,88.3185,44" style="stroke:#A80036;stroke-width:1.0;"/><text fill="#000000" font-family="sans-serif" font-size="13" lengthAdjust="spacing" textLength="64" x="106.25" y="37.0669">«creates»</text><!--MD5=[93b29702f80f463473795907b5c35ca7]
link ConcreteCollection to ConcreteIterator--><path codeLine="19" d="M204.908,203.076 C190.24,219.76 173.246,241.691 162.5,264 C151.463,286.913 144.766,314.641 140.803,337.0131 " fill="none" id="ConcreteCollection-to-ConcreteIterator" style="stroke:#A80036;stroke-width:1.0;stroke-dasharray:7.0,7.0;"/><polygon fill="#A80036" points="139.95,341.9929,145.4122,333.7975,140.7942,337.0647,137.527,332.4467,139.95,341.9929" style="stroke:#A80036;stroke-width:1.0;"/><text fill="#000000" font-family="sans-serif" font-size="13" lengthAdjust="spacing" textLength="64" x="163.5" y="277.0669">«creates»</text><!--MD5=[2b24641633e8a464ee15a8ff4a5c08cb]
reverse link ConcreteIterator to ConcreteCollection--><path codeLine="20" d="M195.423,332.5651 C210.335,317.899 224.373,300.365 232.5,281 C242.828,256.39 241.93,225.731 239.125,203.46 " fill="none" id="ConcreteIterator-backto-ConcreteCollection" style="stroke:#A80036;stroke-width:1.0;"/><polygon fill="#FFFFFF" points="185.551,341.7791,192.6666,340.6095,194.3238,333.5914,187.2082,334.761,185.551,341.7791" style="stroke:#A80036;stroke-width:1.0;"/><!--MD5=[3e6c8c8e2cf1d5dd54d927e0cf9ae176]
@startuml
abstract class Collection {
    + iterator()
}
abstract class Iterator {
    + next()
    + hasNext()
}

class ConcreteCollection extends Collection {
    + iterator()
}

class ConcreteIterator extends Iterator {
    + next()
    + hasNext()
}

Collection .left.> Iterator : <<creates>>
ConcreteCollection .down..> ConcreteIterator : <<creates>>
ConcreteIterator o-down- ConcreteCollection
@enduml

PlantUML version 1.2021.7(Sun May 23 12:40:07 UTC 2021)
(GPL source distribution)
Java Runtime: Java(TM) SE Runtime Environment
JVM: Java HotSpot(TM) 64-Bit Server VM
Default Encoding: UTF-8
Language: en
Country: US
--></g></svg>