<?xml version="1.0" encoding="UTF-8" standalone="no"?><svg xmlns="http://www.w3.org/2000/svg" xmlns:xlink="http://www.w3.org/1999/xlink" contentScriptType="application/ecmascript" contentStyleType="text/css" height="322px" preserveAspectRatio="none" style="width:246px;height:322px;background:#FFFFFF;" version="1.1" viewBox="0 0 246 322" width="246px" zoomAndPan="magnify"><defs><filter height="300%" id="fa77yyt72pcie" width="300%" x="-1" y="-1"><feGaussianBlur result="blurOut" stdDeviation="2.0"/><feColorMatrix in="blurOut" result="blurOut2" type="matrix" values="0 0 0 0 0 0 0 0 0 0 0 0 0 0 0 0 0 0 .4 0"/><feOffset dx="4.0" dy="4.0" in="blurOut2" result="blurOut3"/><feBlend in="SourceGraphic" in2="blurOut3" mode="normal"/></filter></defs><g><!--MD5=[6754354365917abf8f1a56af1b7e344c]
class Context--><rect codeLine="1" fill="#FEFECE" filter="url(#fa77yyt72pcie)" height="48" id="Context" style="stroke:#A80036;stroke-width:1.5;" width="78" x="80.5" y="7"/><ellipse cx="95.5" cy="23" fill="#ADD1B2" rx="11" ry="11" style="stroke:#A80036;stroke-width:1.0;"/><path d="M97.8438,18.6719 C96.9063,18.2344 96.3125,18.0938 95.4375,18.0938 C92.8125,18.0938 90.8125,20.1719 90.8125,22.8906 L90.8125,24.0156 C90.8125,26.5938 92.9219,28.4844 95.8125,28.4844 C97.0313,28.4844 98.1875,28.1875 98.9375,27.6406 C99.5156,27.2344 99.8438,26.7813 99.8438,26.3906 C99.8438,25.9375 99.4531,25.5469 98.9844,25.5469 C98.7656,25.5469 98.5625,25.625 98.375,25.8125 C97.9219,26.2969 97.9219,26.2969 97.7344,26.3906 C97.3125,26.6563 96.625,26.7813 95.8594,26.7813 C93.8125,26.7813 92.5156,25.6875 92.5156,23.9844 L92.5156,22.8906 C92.5156,21.1094 93.7656,19.7969 95.5,19.7969 C96.0781,19.7969 96.6875,19.9531 97.1563,20.2031 C97.6406,20.4844 97.8125,20.7031 97.9063,21.1094 C97.9688,21.5156 98,21.6406 98.1406,21.7656 C98.2813,21.9063 98.5156,22.0156 98.7344,22.0156 C99,22.0156 99.2656,21.875 99.4375,21.6563 C99.5469,21.5 99.5781,21.3125 99.5781,20.8906 L99.5781,19.4688 C99.5781,19.0313 99.5625,18.9063 99.4688,18.75 C99.3125,18.4844 99.0313,18.3438 98.7344,18.3438 C98.4375,18.3438 98.2344,18.4375 98.0156,18.75 L97.8438,18.6719 Z " fill="#000000"/><text fill="#000000" font-family="sans-serif" font-size="12" lengthAdjust="spacing" textLength="46" x="109.5" y="27.1543">Context</text><line style="stroke:#A80036;stroke-width:1.5;" x1="81.5" x2="157.5" y1="39" y2="39"/><line style="stroke:#A80036;stroke-width:1.5;" x1="81.5" x2="157.5" y1="47" y2="47"/><!--MD5=[377953f0e8c8c0131a700fca43c84158]
class Strategy--><rect codeLine="2" fill="#FEFECE" filter="url(#fa77yyt72pcie)" height="66.7422" id="Strategy" style="stroke:#A80036;stroke-width:1.5;" width="95" x="72" y="115"/><ellipse cx="87" cy="133.9688" fill="#B4A7E5" rx="11" ry="11" style="stroke:#A80036;stroke-width:1.0;"/><path d="M87.9531,130.75 L89.6719,130.75 C90.0625,130.75 90.25,130.7188 90.375,130.6406 C90.6406,130.4844 90.7813,130.2031 90.7813,129.9063 C90.7813,129.6406 90.6719,129.375 90.4375,129.2031 C90.2656,129.0938 90.125,129.0625 89.6719,129.0625 L84.5313,129.0625 C84.0938,129.0625 83.9688,129.0781 83.8125,129.1719 C83.5625,129.3281 83.4063,129.625 83.4063,129.9063 C83.4063,130.1875 83.5469,130.4375 83.7656,130.6094 C83.9219,130.7188 84.1094,130.75 84.5313,130.75 L86.25,130.75 L86.25,137.2656 L84.5313,137.2656 C84.0938,137.2656 83.9688,137.2813 83.8125,137.3906 C83.5625,137.5469 83.4063,137.8281 83.4063,138.125 C83.4063,138.375 83.5469,138.6406 83.7656,138.7969 C83.9219,138.9219 84.125,138.9688 84.5313,138.9688 L89.6719,138.9688 C90.4219,138.9688 90.7813,138.6875 90.7813,138.125 C90.7813,137.8438 90.6719,137.5938 90.4375,137.4219 C90.2656,137.2969 90.125,137.2656 89.6719,137.2656 L87.9531,137.2656 L87.9531,130.75 Z " fill="#000000"/><text fill="#000000" font-family="sans-serif" font-size="12" font-style="italic" lengthAdjust="spacing" textLength="67" x="99" y="131.1387">«interface»</text><text fill="#000000" font-family="sans-serif" font-size="12" font-style="italic" lengthAdjust="spacing" textLength="52" x="106.5" y="145.1074">Strategy</text><line style="stroke:#A80036;stroke-width:1.5;" x1="73" x2="166" y1="152.9375" y2="152.9375"/><line style="stroke:#A80036;stroke-width:1.5;" x1="73" x2="166" y1="160.9375" y2="160.9375"/><ellipse cx="83" cy="171.9375" fill="#84BE84" rx="3" ry="3" style="stroke:#038048;stroke-width:1.0;"/><text fill="#000000" font-family="sans-serif" font-size="11" lengthAdjust="spacing" textLength="52" x="92" y="175.1479">solution()</text><!--MD5=[d678f02e2d5bd6dca56adad3113a969b]
class Strategy1--><rect codeLine="6" fill="#FEFECE" filter="url(#fa77yyt72pcie)" height="66.7422" id="Strategy1" style="stroke:#A80036;stroke-width:1.5;" width="95" x="7" y="242"/><ellipse cx="22" cy="260.9688" fill="#ADD1B2" rx="11" ry="11" style="stroke:#A80036;stroke-width:1.0;"/><path d="M24.3438,256.6406 C23.4063,256.2031 22.8125,256.0625 21.9375,256.0625 C19.3125,256.0625 17.3125,258.1406 17.3125,260.8594 L17.3125,261.9844 C17.3125,264.5625 19.4219,266.4531 22.3125,266.4531 C23.5313,266.4531 24.6875,266.1563 25.4375,265.6094 C26.0156,265.2031 26.3438,264.75 26.3438,264.3594 C26.3438,263.9063 25.9531,263.5156 25.4844,263.5156 C25.2656,263.5156 25.0625,263.5938 24.875,263.7813 C24.4219,264.2656 24.4219,264.2656 24.2344,264.3594 C23.8125,264.625 23.125,264.75 22.3594,264.75 C20.3125,264.75 19.0156,263.6563 19.0156,261.9531 L19.0156,260.8594 C19.0156,259.0781 20.2656,257.7656 22,257.7656 C22.5781,257.7656 23.1875,257.9219 23.6563,258.1719 C24.1406,258.4531 24.3125,258.6719 24.4063,259.0781 C24.4688,259.4844 24.5,259.6094 24.6406,259.7344 C24.7813,259.875 25.0156,259.9844 25.2344,259.9844 C25.5,259.9844 25.7656,259.8438 25.9375,259.625 C26.0469,259.4688 26.0781,259.2813 26.0781,258.8594 L26.0781,257.4375 C26.0781,257 26.0625,256.875 25.9688,256.7188 C25.8125,256.4531 25.5313,256.3125 25.2344,256.3125 C24.9375,256.3125 24.7344,256.4063 24.5156,256.7188 L24.3438,256.6406 Z " fill="#000000"/><text fill="#000000" font-family="sans-serif" font-size="12" font-style="italic" lengthAdjust="spacing" textLength="67" x="34" y="258.1387">«concrete»</text><text fill="#000000" font-family="sans-serif" font-size="12" lengthAdjust="spacing" textLength="58" x="38.5" y="272.1074">Strategy1</text><line style="stroke:#A80036;stroke-width:1.5;" x1="8" x2="101" y1="279.9375" y2="279.9375"/><line style="stroke:#A80036;stroke-width:1.5;" x1="8" x2="101" y1="287.9375" y2="287.9375"/><ellipse cx="18" cy="298.9375" fill="#84BE84" rx="3" ry="3" style="stroke:#038048;stroke-width:1.0;"/><text fill="#000000" font-family="sans-serif" font-size="11" lengthAdjust="spacing" textLength="52" x="27" y="302.1479">solution()</text><!--MD5=[bc790b966eae73bda6a7bf384de79ba2]
class Strategy2--><rect codeLine="10" fill="#FEFECE" filter="url(#fa77yyt72pcie)" height="66.7422" id="Strategy2" style="stroke:#A80036;stroke-width:1.5;" width="95" x="137" y="242"/><ellipse cx="152" cy="260.9688" fill="#ADD1B2" rx="11" ry="11" style="stroke:#A80036;stroke-width:1.0;"/><path d="M154.3438,256.6406 C153.4063,256.2031 152.8125,256.0625 151.9375,256.0625 C149.3125,256.0625 147.3125,258.1406 147.3125,260.8594 L147.3125,261.9844 C147.3125,264.5625 149.4219,266.4531 152.3125,266.4531 C153.5313,266.4531 154.6875,266.1563 155.4375,265.6094 C156.0156,265.2031 156.3438,264.75 156.3438,264.3594 C156.3438,263.9063 155.9531,263.5156 155.4844,263.5156 C155.2656,263.5156 155.0625,263.5938 154.875,263.7813 C154.4219,264.2656 154.4219,264.2656 154.2344,264.3594 C153.8125,264.625 153.125,264.75 152.3594,264.75 C150.3125,264.75 149.0156,263.6563 149.0156,261.9531 L149.0156,260.8594 C149.0156,259.0781 150.2656,257.7656 152,257.7656 C152.5781,257.7656 153.1875,257.9219 153.6563,258.1719 C154.1406,258.4531 154.3125,258.6719 154.4063,259.0781 C154.4688,259.4844 154.5,259.6094 154.6406,259.7344 C154.7813,259.875 155.0156,259.9844 155.2344,259.9844 C155.5,259.9844 155.7656,259.8438 155.9375,259.625 C156.0469,259.4688 156.0781,259.2813 156.0781,258.8594 L156.0781,257.4375 C156.0781,257 156.0625,256.875 155.9688,256.7188 C155.8125,256.4531 155.5313,256.3125 155.2344,256.3125 C154.9375,256.3125 154.7344,256.4063 154.5156,256.7188 L154.3438,256.6406 Z " fill="#000000"/><text fill="#000000" font-family="sans-serif" font-size="12" font-style="italic" lengthAdjust="spacing" textLength="67" x="164" y="258.1387">«concrete»</text><text fill="#000000" font-family="sans-serif" font-size="12" lengthAdjust="spacing" textLength="59" x="168" y="272.1074">Strategy2</text><line style="stroke:#A80036;stroke-width:1.5;" x1="138" x2="231" y1="279.9375" y2="279.9375"/><line style="stroke:#A80036;stroke-width:1.5;" x1="138" x2="231" y1="287.9375" y2="287.9375"/><ellipse cx="148" cy="298.9375" fill="#84BE84" rx="3" ry="3" style="stroke:#038048;stroke-width:1.0;"/><text fill="#000000" font-family="sans-serif" font-size="11" lengthAdjust="spacing" textLength="52" x="157" y="302.1479">solution()</text><!--MD5=[d7ae2fb1d2e7383bf211b48d4c302458]
reverse link Strategy to Strategy1--><path codeLine="14" d="M93.3349,199.818 C85.996,213.9308 78.2088,228.9062 71.5494,241.7126 " fill="none" id="Strategy-backto-Strategy1" style="stroke:#A80036;stroke-width:1.0;"/><polygon fill="none" points="87.1541,196.531,102.5917,182.016,99.5751,202.99,87.1541,196.531" style="stroke:#A80036;stroke-width:1.0;"/><!--MD5=[d1c818ce3a6ca07844ad774c0917e5d5]
reverse link Strategy to Strategy2--><path codeLine="15" d="M145.665,199.818 C153.004,213.9308 160.791,228.9062 167.451,241.7126 " fill="none" id="Strategy-backto-Strategy2" style="stroke:#A80036;stroke-width:1.0;"/><polygon fill="none" points="139.425,202.99,136.408,182.016,151.846,196.531,139.425,202.99" style="stroke:#A80036;stroke-width:1.0;"/><!--MD5=[15e64ee5c0aab48b7a8d48303689f63f]
reverse link Context to Strategy--><path codeLine="16" d="M119.5,68.51 C119.5,83.359 119.5,100.386 119.5,114.82 " fill="none" id="Context-backto-Strategy" style="stroke:#A80036;stroke-width:1.0;"/><polygon fill="#A80036" points="119.5,55.096,115.5,61.096,119.5,67.096,123.5,61.096,119.5,55.096" style="stroke:#A80036;stroke-width:1.0;"/><text fill="#000000" font-family="sans-serif" font-size="13" lengthAdjust="spacing" textLength="54" x="58.9188" y="74.8806">strategy</text><!--MD5=[f34b7d7aafdef3d33b2aab5e420d2bf0]
@startuml
class Context
interface Strategy <<interface>> {
    + solution()
}

class Strategy1 <<concrete>> {
    + solution()
}

class Strategy2 <<concrete>> {
    + solution()
}

Strategy1 -up-|> Strategy
Strategy2 -up-|> Strategy
Context "strategy" *- - Strategy
@enduml

PlantUML version 1.2021.7(Sun May 23 12:40:07 UTC 2021)
(GPL source distribution)
Java Runtime: Java(TM) SE Runtime Environment
JVM: Java HotSpot(TM) 64-Bit Server VM
Default Encoding: UTF-8
Language: en
Country: US
--></g></svg>